<svg width="21" height="24" viewBox="0 0 21 24" fill="none" xmlns="http://www.w3.org/2000/svg">
<path d="M19.7949 18.7C19.4449 19.5152 19.0127 20.2925 18.5049 21.02C18.0269 21.7491 17.4695 22.4229 16.8429 23.029C16.2734 23.5984 15.5115 23.9341 14.7069 23.97C14.025 23.9406 13.3549 23.7811 12.7329 23.5C12.0619 23.2075 11.3406 23.0479 10.6089 23.03C9.85716 23.0449 9.1153 23.2045 8.42391 23.5C7.82687 23.7708 7.18873 23.9398 6.53591 24C6.12531 23.9951 5.71997 23.907 5.3444 23.741C4.96884 23.5749 4.63086 23.3344 4.35091 23.034C3.69718 22.4064 3.11435 21.7089 2.61291 20.954C1.82933 19.8298 1.21041 18.5993 0.774915 17.3C0.277935 15.9022 0.0170382 14.4314 0.00291451 12.948C-0.0365071 11.4925 0.324631 10.0542 1.04691 8.79C1.57317 7.87716 2.32612 7.1156 3.23291 6.579C4.12667 6.04419 5.14643 5.75638 6.18791 5.745C6.97454 5.79161 7.74754 5.9715 8.47391 6.277C9.05279 6.53196 9.66216 6.71111 10.2869 6.81C10.9757 6.66635 11.6489 6.45602 12.2969 6.182C13.1635 5.83091 14.0945 5.66666 15.0289 5.7C15.9191 5.72273 16.7922 5.95014 17.5803 6.3646C18.3685 6.77907 19.0506 7.36945 19.5739 8.09C18.7445 8.53095 18.0543 9.19425 17.5807 10.0055C17.1072 10.8168 16.869 11.7439 16.8929 12.683C16.8841 13.4008 17.0278 14.1123 17.3147 14.7703C17.6016 15.4284 18.025 16.0179 18.5569 16.5C19.0397 16.9618 19.603 17.3313 20.2189 17.59C20.0856 17.9767 19.9442 18.3477 19.7949 18.703V18.7ZM15.1639 0.48C15.1479 1.72151 14.6813 2.9149 13.8509 3.838C13.4255 4.42036 12.8656 4.8912 12.2189 5.21037C11.5722 5.52954 10.8579 5.68758 10.1369 5.671C10.1183 5.52004 10.109 5.3681 10.1089 5.216C10.1514 3.95437 10.6462 2.75009 11.5029 1.823C11.979 1.28954 12.557 0.85672 13.2029 0.55C13.8049 0.23883 14.4633 0.051795 15.1389 0C15.1561 0.159419 15.1644 0.319662 15.1639 0.48V0.48Z" fill="white"/>
</svg>
