<svg width="44" height="44" viewBox="0 0 44 44" fill="none" xmlns="http://www.w3.org/2000/svg">
<circle cx="22" cy="22" r="22" fill="#6B28B6"/>
<g clip-path="url(#clip0_635_548)">
<path d="M27 30H17V31C17 31.2652 16.8946 31.5196 16.7071 31.7071C16.5196 31.8946 16.2652 32 16 32H14C13.7348 32 13.4804 31.8946 13.2929 31.7071C13.1054 31.5196 13 31.2652 13 31V22H12V18H13V15C13 14.4696 13.2107 13.9609 13.5858 13.5858C13.9609 13.2107 14.4696 13 15 13H29C29.5304 13 30.0391 13.2107 30.4142 13.5858C30.7893 13.9609 31 14.4696 31 15V18H32V22H31V31C31 31.2652 30.8946 31.5196 30.7071 31.7071C30.5196 31.8946 30.2652 32 30 32H28C27.7348 32 27.4804 31.8946 27.2929 31.7071C27.1054 31.5196 27 31.2652 27 31V30ZM15 15V22H29V15H15ZM17.5 28C17.8978 28 18.2794 27.842 18.5607 27.5607C18.842 27.2794 19 26.8978 19 26.5C19 26.1022 18.842 25.7206 18.5607 25.4393C18.2794 25.158 17.8978 25 17.5 25C17.1022 25 16.7206 25.158 16.4393 25.4393C16.158 25.7206 16 26.1022 16 26.5C16 26.8978 16.158 27.2794 16.4393 27.5607C16.7206 27.842 17.1022 28 17.5 28ZM26.5 28C26.8978 28 27.2794 27.842 27.5607 27.5607C27.842 27.2794 28 26.8978 28 26.5C28 26.1022 27.842 25.7206 27.5607 25.4393C27.2794 25.158 26.8978 25 26.5 25C26.1022 25 25.7206 25.158 25.4393 25.4393C25.158 25.7206 25 26.1022 25 26.5C25 26.8978 25.158 27.2794 25.4393 27.5607C25.7206 27.842 26.1022 28 26.5 28Z" fill="white"/>
</g>
<defs>
<clipPath id="clip0_635_548">
<rect width="24" height="24" fill="white" transform="translate(10 10)"/>
</clipPath>
</defs>
</svg>
