<svg width="56" height="56" viewBox="0 0 56 56" fill="none" xmlns="http://www.w3.org/2000/svg">
<circle cx="28" cy="28" r="28" fill="#6B28B6"/>
<path fill-rule="evenodd" clip-rule="evenodd" d="M19.4407 18.1211C18.4018 18.3996 18.2228 18.5648 15.4959 21.7591L13.6021 23.9775L11.8884 24.0171C10.2157 24.0558 10.1631 24.0621 9.68917 24.2805C9.08151 24.5605 8.54122 25.1018 8.25165 25.7206L8.02915 26.1959L8.00468 28.3994C7.98926 29.7814 8.01246 30.7579 8.06682 31.0191C8.41813 32.7063 9.86002 33.8415 11.6516 33.8415H12.1811L12.1438 33.1483C11.9889 30.2734 14.3189 27.8229 17.2073 27.8229C20.0958 27.8229 22.4258 30.2734 22.2709 33.1483L22.2336 33.8415H28.6503H35.067L35.0297 33.1483C34.8748 30.2734 37.2048 27.8229 40.0932 27.8229C42.9867 27.8229 45.3119 30.2731 45.1563 33.1582L45.1184 33.8614L45.5124 33.8148C46.4475 33.7045 47.3682 33.0259 47.7756 32.1468L48 31.6627V29.5632V27.4636L47.7914 27.0278C47.5006 26.4205 47.0987 25.9896 46.5522 25.6992C46.1362 25.4781 45.6571 25.3732 42.1351 24.7323L38.1846 24.0132L34.9471 21.3355C33.1665 19.8627 31.5488 18.5641 31.3521 18.4497C30.5802 18.0006 30.504 17.9953 24.9584 18.001C20.7737 18.0052 19.7932 18.0265 19.4407 18.1211ZM21.6759 19.9581L21.9355 20.2171V21.8383V23.4595L21.6758 23.7185L21.4161 23.9775L19.0369 24.0007C16.7314 24.0231 16.6528 24.0188 16.4955 23.862C16.4063 23.773 16.3332 23.6302 16.3332 23.5446C16.3332 23.366 19.071 20.1112 19.4564 19.8317C19.6914 19.6612 19.7744 19.6493 20.5634 19.6732C21.4066 19.6988 21.4193 19.7021 21.6759 19.9581ZM30.3253 19.8956C30.5185 20.0255 31.5706 20.8381 32.6633 21.7016C34.4128 23.0841 34.6528 23.3007 34.6741 23.5155C34.7266 24.0458 34.9655 24.0231 29.5979 23.9991L24.7595 23.9775L24.4998 23.7185L24.24 23.4595V21.8432C24.24 20.2288 24.2402 20.2267 24.4387 20.0138C24.5479 19.8966 24.7088 19.7712 24.7962 19.7351C24.8837 19.6991 26.0844 19.6673 27.4646 19.6645L29.9739 19.6595L30.3253 19.8956ZM27.3975 25.9003C27.6207 26.1232 27.657 26.2142 27.657 26.5525C27.657 26.8908 27.6208 26.9816 27.3972 27.2046L27.1374 27.4636H26.1074H25.0774L24.8176 27.2046C24.5949 26.9825 24.5579 26.8901 24.5579 26.5573C24.5579 26.2528 24.6007 26.1231 24.7565 25.9559C25.0556 25.6351 25.1927 25.6036 26.2055 25.6233L27.1378 25.6413L27.3975 25.9003ZM16.2247 28.8965C14.7757 29.2462 13.5423 30.4894 13.1975 31.9474C12.499 34.9022 15.19 37.5852 18.1535 36.8887C19.6352 36.5405 20.8679 35.3115 21.2171 33.8342C21.5476 32.4365 21.14 31.0245 20.1096 29.9972C19.0784 28.9689 17.6276 28.558 16.2247 28.8965ZM39.1106 28.8965C37.6616 29.2462 36.4282 30.4894 36.0834 31.9474C35.5658 34.137 36.9521 36.3728 39.1471 36.8887C42.1106 37.5852 44.8016 34.9022 44.103 31.9474C43.5839 29.7513 41.3147 28.3647 39.1106 28.8965ZM17.7941 31.0856C18.477 31.2868 19.1145 32.1583 19.1145 32.8908C19.1145 33.6233 18.477 34.4948 17.7941 34.6959C17.0491 34.9154 16.4551 34.7607 15.8935 34.2008C15.0895 33.3992 15.0895 32.3832 15.8935 31.5799C16.4509 31.023 17.0514 30.8668 17.7941 31.0856ZM40.68 31.0856C41.3629 31.2868 42.0004 32.1583 42.0004 32.8908C42.0004 33.8725 41.0779 34.7923 40.0932 34.7923C39.5934 34.7923 39.1909 34.6111 38.7794 34.2008C37.9754 33.3992 37.9754 32.3832 38.7794 31.5799C39.3368 31.023 39.9373 30.8668 40.68 31.0856Z" fill="white"/>
</svg>
