<svg width="44" height="44" viewBox="0 0 44 44" fill="none" xmlns="http://www.w3.org/2000/svg">
<circle cx="22" cy="22" r="22" fill="#6B28B6"/>
<g clip-path="url(#clip0_635_543)">
<path d="M29 30H15V31C15 31.2652 14.8946 31.5196 14.7071 31.7071C14.5196 31.8946 14.2652 32 14 32H13C12.7348 32 12.4804 31.8946 12.2929 31.7071C12.1054 31.5196 12 31.2652 12 31V22L14.513 15.298C14.6559 14.9167 14.9119 14.5881 15.2466 14.3562C15.5813 14.1242 15.9788 13.9999 16.386 14H27.614C28.0212 13.9999 28.4187 14.1242 28.7534 14.3562C29.0881 14.5881 29.3441 14.9167 29.487 15.298L32 22V31C32 31.2652 31.8946 31.5196 31.7071 31.7071C31.5196 31.8946 31.2652 32 31 32H30C29.7348 32 29.4804 31.8946 29.2929 31.7071C29.1054 31.5196 29 31.2652 29 31V30ZM14.136 22H29.864L27.614 16H16.386L14.136 22ZM16.5 27C16.8978 27 17.2794 26.842 17.5607 26.5607C17.842 26.2794 18 25.8978 18 25.5C18 25.1022 17.842 24.7206 17.5607 24.4393C17.2794 24.158 16.8978 24 16.5 24C16.1022 24 15.7206 24.158 15.4393 24.4393C15.158 24.7206 15 25.1022 15 25.5C15 25.8978 15.158 26.2794 15.4393 26.5607C15.7206 26.842 16.1022 27 16.5 27ZM27.5 27C27.8978 27 28.2794 26.842 28.5607 26.5607C28.842 26.2794 29 25.8978 29 25.5C29 25.1022 28.842 24.7206 28.5607 24.4393C28.2794 24.158 27.8978 24 27.5 24C27.1022 24 26.7206 24.158 26.4393 24.4393C26.158 24.7206 26 25.1022 26 25.5C26 25.8978 26.158 26.2794 26.4393 26.5607C26.7206 26.842 27.1022 27 27.5 27Z" fill="white"/>
</g>
<defs>
<clipPath id="clip0_635_543">
<rect width="24" height="24" fill="white" transform="translate(10 10)"/>
</clipPath>
</defs>
</svg>
