<svg width="12" height="24" viewBox="0 0 12 24" fill="none" xmlns="http://www.w3.org/2000/svg">
<path d="M11.2131 13.399L11.8351 9.08822H7.94521V6.29076C7.9181 5.96881 7.95955 5.64437 8.06628 5.3417C8.173 5.03904 8.34237 4.76595 8.56187 4.54228C8.78137 4.31861 9.04557 4.15025 9.33454 4.0497C9.62351 3.94915 9.9298 3.91887 10.2312 3.96128H12V0.291413C10.9612 0.112787 9.9118 0.0154076 8.85962 0C5.65646 0 3.56215 2.06369 3.56215 5.80315V9.08926H0V13.4H3.56314V23.82C4.28801 23.9407 5.02047 24.0008 5.75417 24C6.48784 23.9998 7.22023 23.9397 7.94521 23.82V13.4L11.2131 13.399Z" fill="white"/>
</svg>
