<svg width="24" height="25" viewBox="0 0 24 25" fill="none" xmlns="http://www.w3.org/2000/svg">
<path fill-rule="evenodd" clip-rule="evenodd" d="M16.6 6.54984C15.3627 5.36891 13.7103 4.72233 12 4.74984C10.5003 4.76844 9.04425 5.25707 7.8369 6.14688C6.62955 7.0367 5.73178 8.28286 5.27004 9.70984L5.27 9.70981V9.71003C5.02089 10.4479 4.89257 11.2212 4.89 12C4.88764 12.7792 5.01608 13.5533 5.26997 14.29H5.27004C5.73178 15.7169 6.62955 16.9631 7.8369 17.8529C9.04425 18.7427 10.5003 19.2313 12 19.25C13.442 19.2773 14.8592 18.8734 16.07 18.09V18.0899C16.6878 17.6825 17.2182 17.1561 17.6302 16.5414C18.0423 15.9267 18.3278 15.2361 18.47 14.5099H12V9.99992H23.3C23.4253 10.7501 23.4889 11.5093 23.49 12.2699C23.5452 13.9071 23.257 15.5378 22.6438 17.0568C22.0307 18.5759 21.1062 19.9497 19.93 21.0899L19.93 21.09C17.7552 23.0369 14.918 24.078 12 24C9.7764 23.999 7.5969 23.3792 5.70542 22.2101C3.81396 21.0409 2.28514 19.3685 1.29006 17.38L1.29 17.38C0.441918 15.7135 -0.000104304 13.87 0 12C-0.000104304 10.1301 0.441918 8.28661 1.29 6.62003H1.29029L1.29004 6.61984C2.28513 4.63128 3.81395 2.95885 5.70542 1.7897C7.5969 0.620558 9.7764 0.000817999 12 -0.000162453C14.9783 -0.0374197 17.8543 1.08502 20.02 3.12984L16.6 6.54984Z" fill="white"/>
</svg>
