<svg width="130" height="156" viewBox="0 0 130 156" fill="none" xmlns="http://www.w3.org/2000/svg">
<g filter="url(#filter0_d_1230_460)">
<rect x="52" y="39" width="52" height="52" rx="26" fill="#FF5A5F"/>
</g>
<g clip-path="url(#clip0_1230_460)">
<path d="M76 56H80C82.1217 56 84.1566 56.8429 85.6569 58.3431C87.1571 59.8434 88 61.8783 88 64C88 66.1217 87.1571 68.1566 85.6569 69.6569C84.1566 71.1571 82.1217 72 80 72V75.5C75 73.5 68 70.5 68 64C68 61.8783 68.8429 59.8434 70.3431 58.3431C71.8434 56.8429 73.8783 56 76 56Z" fill="white"/>
</g>
<defs>
<filter id="filter0_d_1230_460" x="0" y="0" width="156" height="156" filterUnits="userSpaceOnUse" color-interpolation-filters="sRGB">
<feFlood flood-opacity="0" result="BackgroundImageFix"/>
<feColorMatrix in="SourceAlpha" type="matrix" values="0 0 0 0 0 0 0 0 0 0 0 0 0 0 0 0 0 0 127 0" result="hardAlpha"/>
<feOffset dy="13"/>
<feGaussianBlur stdDeviation="26"/>
<feComposite in2="hardAlpha" operator="out"/>
<feColorMatrix type="matrix" values="0 0 0 0 0.28359 0 0 0 0 0.0666667 0 0 0 0 0.666667 0 0 0 0.6 0"/>
<feBlend mode="normal" in2="BackgroundImageFix" result="effect1_dropShadow_1230_460"/>
<feBlend mode="normal" in="SourceGraphic" in2="effect1_dropShadow_1230_460" result="shape"/>
</filter>
<clipPath id="clip0_1230_460">
<rect width="24" height="24" fill="white" transform="translate(66 53)"/>
</clipPath>
</defs>
</svg>
