<svg width="62" height="62" viewBox="0 0 62 62" fill="none" xmlns="http://www.w3.org/2000/svg">
<circle cx="31" cy="31" r="31" fill="#8B29C4"/>
<path d="M13.0116 29.24C13.0116 29.6467 12.9183 30.02 12.7316 30.36C12.5449 30.6933 12.2583 30.9633 11.8716 31.17C11.4849 31.3767 11.0049 31.48 10.4316 31.48H9.3716V34H7.6616V26.98H10.4316C10.9916 26.98 11.4649 27.0767 11.8516 27.27C12.2383 27.4633 12.5283 27.73 12.7216 28.07C12.9149 28.41 13.0116 28.8 13.0116 29.24ZM10.3016 30.12C10.6283 30.12 10.8716 30.0433 11.0316 29.89C11.1916 29.7367 11.2716 29.52 11.2716 29.24C11.2716 28.96 11.1916 28.7433 11.0316 28.59C10.8716 28.4367 10.6283 28.36 10.3016 28.36H9.3716V30.12H10.3016ZM17.6818 34L16.2218 31.35H15.8118V34H14.1018V26.98H16.9718C17.5252 26.98 17.9952 27.0767 18.3818 27.27C18.7752 27.4633 19.0685 27.73 19.2618 28.07C19.4552 28.4033 19.5518 28.7767 19.5518 29.19C19.5518 29.6567 19.4185 30.0733 19.1518 30.44C18.8918 30.8067 18.5052 31.0667 17.9918 31.22L19.6118 34H17.6818ZM15.8118 30.14H16.8718C17.1852 30.14 17.4185 30.0633 17.5718 29.91C17.7318 29.7567 17.8118 29.54 17.8118 29.26C17.8118 28.9933 17.7318 28.7833 17.5718 28.63C17.4185 28.4767 17.1852 28.4 16.8718 28.4H15.8118V30.14ZM22.5353 26.98V34H20.8253V26.98H22.5353ZM30.5645 26.98L28.0745 34H25.9345L23.4445 26.98H25.2645L27.0045 32.28L28.7545 26.98H30.5645ZM35.8492 32.76H33.2292L32.8092 34H31.0192L33.5592 26.98H35.5392L38.0792 34H36.2692L35.8492 32.76ZM35.4092 31.44L34.5392 28.87L33.6792 31.44H35.4092ZM38.7622 30.48C38.7622 29.7867 38.9122 29.17 39.2122 28.63C39.5122 28.0833 39.9289 27.66 40.4622 27.36C41.0022 27.0533 41.6122 26.9 42.2922 26.9C43.1256 26.9 43.8389 27.12 44.4322 27.56C45.0256 28 45.4222 28.6 45.6222 29.36H43.7422C43.6022 29.0667 43.4022 28.8433 43.1422 28.69C42.8889 28.5367 42.5989 28.46 42.2722 28.46C41.7456 28.46 41.3189 28.6433 40.9922 29.01C40.6656 29.3767 40.5022 29.8667 40.5022 30.48C40.5022 31.0933 40.6656 31.5833 40.9922 31.95C41.3189 32.3167 41.7456 32.5 42.2722 32.5C42.5989 32.5 42.8889 32.4233 43.1422 32.27C43.4022 32.1167 43.6022 31.8933 43.7422 31.6H45.6222C45.4222 32.36 45.0256 32.96 44.4322 33.4C43.8389 33.8333 43.1256 34.05 42.2922 34.05C41.6122 34.05 41.0022 33.9 40.4622 33.6C39.9289 33.2933 39.5122 32.87 39.2122 32.33C38.9122 31.79 38.7622 31.1733 38.7622 30.48ZM52.8894 26.98L50.4594 31.68V34H48.7494V31.68L46.3194 26.98H48.2594L49.6194 29.92L50.9694 26.98H52.8894Z" fill="white"/>
</svg>
