<svg width="18" height="23" viewBox="0 0 18 23" fill="none" xmlns="http://www.w3.org/2000/svg">
<path d="M17.6668 22.8335H15.5002V20.6668C15.5002 19.8049 15.1578 18.9782 14.5483 18.3687C13.9388 17.7592 13.1121 17.4168 12.2502 17.4168H5.75016C4.88821 17.4168 4.06156 17.7592 3.45207 18.3687C2.84257 18.9782 2.50016 19.8049 2.50016 20.6668V22.8335H0.333496V20.6668C0.333496 19.2302 0.904179 17.8525 1.92 16.8367C2.93582 15.8208 4.31357 15.2502 5.75016 15.2502H12.2502C13.6868 15.2502 15.0645 15.8208 16.0803 16.8367C17.0962 17.8525 17.6668 19.2302 17.6668 20.6668V22.8335ZM9.00016 13.0835C8.14657 13.0835 7.30134 12.9154 6.51272 12.5887C5.72411 12.2621 5.00755 11.7833 4.40397 11.1797C3.80039 10.5761 3.3216 9.85956 2.99495 9.07094C2.66829 8.28232 2.50016 7.43709 2.50016 6.5835C2.50016 5.7299 2.66829 4.88467 2.99495 4.09605C3.3216 3.30744 3.80039 2.59088 4.40397 1.9873C5.00755 1.38372 5.72411 0.904935 6.51272 0.578279C7.30134 0.251623 8.14657 0.0834961 9.00016 0.0834961C10.7241 0.0834961 12.3774 0.768316 13.5964 1.9873C14.8153 3.20629 15.5002 4.85959 15.5002 6.5835C15.5002 8.3074 14.8153 9.9607 13.5964 11.1797C12.3774 12.3987 10.7241 13.0835 9.00016 13.0835ZM9.00016 10.9168C10.1494 10.9168 11.2516 10.4603 12.0643 9.64763C12.877 8.83497 13.3335 7.73277 13.3335 6.5835C13.3335 5.43422 12.877 4.33202 12.0643 3.51937C11.2516 2.70671 10.1494 2.25016 9.00016 2.25016C7.85089 2.25016 6.74869 2.70671 5.93603 3.51937C5.12338 4.33202 4.66683 5.43422 4.66683 6.5835C4.66683 7.73277 5.12338 8.83497 5.93603 9.64763C6.74869 10.4603 7.85089 10.9168 9.00016 10.9168Z" fill="#56637D"/>
</svg>
