<svg width="37" height="31" viewBox="0 0 37 31" fill="none" xmlns="http://www.w3.org/2000/svg">
<path d="M30.1641 15.5647C30.1641 18.5848 29.2793 21.537 27.6216 24.048C25.9639 26.5591 23.6079 28.5161 20.8513 29.6717C18.0948 30.8272 15.0616 31.1293 12.1355 30.5398C9.20929 29.9503 6.52154 28.4956 4.41215 26.3598C2.30275 24.224 0.866465 21.503 0.284925 18.5408C-0.296614 15.5787 0.00271653 12.5085 1.14507 9.71856C2.28742 6.92862 4.22148 4.54426 6.70264 2.86703C9.1838 1.1898 12.1006 0.295033 15.0842 0.295899C17.0648 0.295899 19.0261 0.690868 20.856 1.45825C22.6859 2.22563 24.3484 3.3504 25.7488 4.7683C27.1491 6.1862 28.2598 7.86945 29.0174 9.72192C29.775 11.5744 30.1646 13.5598 30.1641 15.5647Z" fill="white"/>
<path d="M23.2057 15.1097C23.2079 15.0879 23.2079 15.0659 23.2057 15.044V15.0134C23.2076 14.9901 23.2076 14.9667 23.2057 14.9433C23.1965 14.8876 23.1805 14.8332 23.1582 14.7814C23.1492 14.7568 23.1376 14.7333 23.1236 14.7113L20.572 10.6796L20.5201 10.6096C20.5041 10.5563 20.4751 10.5079 20.4358 10.4689C20.3966 10.4299 20.3482 10.4015 20.2953 10.3864C20.2413 10.3732 20.1849 10.3732 20.1309 10.3864C20.0936 10.3821 20.0558 10.3821 20.0185 10.3864H9.93783C9.83016 10.386 9.72406 10.4126 9.62899 10.4637C9.53392 10.5149 9.45282 10.5891 9.39293 10.6796L6.85438 14.4356C6.78787 14.5353 6.74916 14.6514 6.74231 14.7716C6.73546 14.8918 6.76073 15.0116 6.81546 15.1185C6.86001 15.2049 6.92187 15.2809 6.9971 15.3417L7.05764 15.4643L14.5306 27.0209C14.5902 27.114 14.6719 27.1905 14.7682 27.2434C14.8645 27.2963 14.9724 27.3241 15.0819 27.3241C15.1915 27.3241 15.2994 27.2963 15.3957 27.2434C15.492 27.1905 15.5737 27.114 15.6333 27.0209L23.0976 15.4074L23.1279 15.3592C23.1711 15.2826 23.1977 15.1975 23.2057 15.1097ZM9.75188 11.2706L10.5389 14.3787H7.65877L9.75188 11.2706ZM28.1098 15.2673L28.1963 18.2177H25.0048L28.1098 15.2673ZM28.8537 18.2177L28.7715 15.2629L32.0409 18.2177H28.8537ZM24.9096 18.8831H28.205V29.0127L24.9096 18.8831ZM28.8666 18.8831H32.1966L28.8666 29.1265V18.8831ZM32.9447 18.2177L33.7491 15.3198L35.5827 18.2177H32.9447ZM32.4171 17.6618L29.2948 14.8427H33.1869L32.4171 17.6618ZM24.5507 17.7318L23.8198 14.8427H27.5952L24.5507 17.7318ZM21.065 18.8831H24.1658C24.1856 18.937 24.2183 18.9851 24.2609 19.0232L13.964 24.8628L21.065 18.8831ZM32.8928 18.8831H36.0066L29.7359 28.5881L32.8928 18.8831Z" fill="#6B28B6"/>
<path d="M15.0279 8.91983C15.0713 8.91984 15.1142 8.91106 15.1541 8.89402C15.194 8.87697 15.2302 8.85202 15.2604 8.8206C15.2906 8.78918 15.3144 8.75195 15.3301 8.71111C15.3459 8.67026 15.3535 8.6266 15.3523 8.58275L15.3004 4.20523C15.3004 4.11699 15.2658 4.03239 15.2041 3.97C15.1425 3.90761 15.0589 3.87256 14.9717 3.87256C14.8846 3.87256 14.801 3.90761 14.7393 3.97C14.6777 4.03239 14.6431 4.11699 14.6431 4.20523L14.695 8.58275C14.6961 8.67023 14.7312 8.75372 14.7927 8.81517C14.8543 8.87662 14.9372 8.91107 15.0236 8.91106" fill="#6B28B6"/>
<path d="M8.93492 9.16032C8.96347 9.21037 9.0044 9.25205 9.05369 9.28122C9.10298 9.31039 9.15893 9.32604 9.21602 9.32667C9.27542 9.32573 9.33356 9.30914 9.38469 9.27852C9.45522 9.23402 9.50648 9.16411 9.52814 9.08289C9.54981 9.00167 9.54027 8.91516 9.50145 8.84077L7.40834 5.20305C7.38647 5.16511 7.35744 5.1319 7.3229 5.10531C7.28835 5.07873 7.24897 5.05929 7.20701 5.04811C7.16504 5.03693 7.12131 5.03425 7.07832 5.04017C7.03532 5.0461 6.99391 5.06052 6.95642 5.08266C6.91894 5.10479 6.88613 5.13418 6.85987 5.16914C6.83361 5.20411 6.8144 5.24399 6.80336 5.28646C6.79231 5.32894 6.78965 5.37319 6.7955 5.41672C6.80136 5.46024 6.81562 5.50219 6.83749 5.54013L8.93492 9.17785" fill="#6B28B6"/>
<path d="M20.8575 9.27846C20.9088 9.30854 20.9668 9.32509 21.0261 9.32661C21.0839 9.32631 21.1405 9.31083 21.1906 9.28167C21.2406 9.25251 21.2823 9.21066 21.3115 9.16026L23.4047 5.52254C23.4265 5.4846 23.4408 5.44268 23.4466 5.39916C23.4525 5.35563 23.4498 5.31136 23.4388 5.26888C23.4278 5.2264 23.4085 5.18655 23.3823 5.15158C23.356 5.11662 23.3232 5.08723 23.2857 5.0651C23.2482 5.04297 23.2068 5.02852 23.1638 5.02259C23.1208 5.01666 23.0771 5.01937 23.0351 5.03055C22.9932 5.04173 22.9538 5.06117 22.9193 5.08775C22.8847 5.11434 22.8557 5.14755 22.8338 5.18549L20.7407 8.84071C20.7019 8.9151 20.6923 9.00161 20.714 9.08283C20.7357 9.16406 20.7869 9.23396 20.8575 9.27846Z" fill="#6B28B6"/>
<path d="M6.9281 12.6712C6.94498 12.6305 6.95366 12.5867 6.95365 12.5425C6.95363 12.4983 6.94491 12.4545 6.928 12.4138C6.91109 12.373 6.88634 12.3361 6.85517 12.3051C6.82399 12.2742 6.78703 12.2498 6.74646 12.2335L4.0825 11.1566C4.00106 11.1241 3.91021 11.1257 3.82992 11.161C3.74963 11.1963 3.68648 11.2624 3.65437 11.3448C3.62225 11.4272 3.62379 11.5192 3.65867 11.6005C3.69354 11.6818 3.75889 11.7457 3.84032 11.7782L6.49995 12.8507C6.53824 12.8673 6.57937 12.8763 6.62104 12.877C6.68716 12.8773 6.75185 12.8574 6.80662 12.8199C6.8614 12.7824 6.90374 12.7291 6.9281 12.6668" fill="#6B28B6"/>
<path d="M26.5057 10.811C26.4721 10.7287 26.4081 10.663 26.3273 10.6279C26.2465 10.5927 26.1554 10.5909 26.0733 10.6227L23.4136 11.6996C23.3415 11.7275 23.2814 11.7801 23.2438 11.8483C23.2062 11.9165 23.1935 11.996 23.208 12.0727C23.2224 12.1494 23.263 12.2186 23.3228 12.268C23.3825 12.3174 23.4576 12.344 23.5347 12.3431C23.5748 12.3497 23.6157 12.3497 23.6558 12.3431L26.3198 11.2662C26.4018 11.2331 26.4674 11.1684 26.5023 11.0863C26.5371 11.0042 26.5384 10.9115 26.5057 10.8285" fill="#6B28B6"/>
</svg>
