<svg width="32" height="33" viewBox="0 0 32 33" fill="none" xmlns="http://www.w3.org/2000/svg">
<path d="M31.1427 16.6212C31.1442 17.1227 31.1196 17.6238 31.0691 18.1227C31.0215 18.6217 30.948 19.1164 30.8529 19.6111C30.7577 20.1057 30.6367 20.5873 30.494 21.0688C30.3512 21.5503 30.1826 22.0187 29.9923 22.4827C29.802 22.9467 29.5901 23.4107 29.3739 23.8485C29.1576 24.2862 28.8852 24.724 28.6127 25.1399C28.3403 25.5557 28.0419 25.9585 27.7262 26.3481C27.4105 26.7377 27.0818 27.1054 26.7272 27.46C26.3788 27.8149 26.0121 28.1509 25.6288 28.4668C25.2466 28.7868 24.8482 29.0863 24.4352 29.3642C24.0027 29.6443 23.6005 29.8982 23.1637 30.139C22.727 30.3798 22.2772 30.5768 21.8231 30.7781C20.9071 31.1648 19.9553 31.4581 18.9818 31.6536C18.4974 31.7543 18.008 31.8288 17.5158 31.8769C17.0228 31.925 16.5255 31.9513 16.0325 31.9513C15.5395 31.9513 15.0421 31.925 14.5491 31.8769C14.0555 31.8285 13.5647 31.754 13.0788 31.6536C12.5944 31.5573 12.1144 31.4347 11.6387 31.2903C11.163 31.1458 10.7002 30.9751 10.2418 30.7825C9.78341 30.5899 9.33797 30.3798 8.90119 30.1434C8.4644 29.907 8.03626 29.6487 7.62542 29.3685C7.21459 29.0884 6.81673 28.7907 6.43184 28.4712C6.04695 28.1516 5.68368 27.8189 5.33339 27.4643C4.9831 27.1098 4.6501 26.7376 4.33441 26.3524C4.01871 25.9672 3.72896 25.5601 3.46948 25.1443C3.19287 24.7272 2.93738 24.2962 2.70402 23.8529C2.47007 23.4121 2.25932 22.9591 2.07263 22.4958C1.88235 22.0318 1.71369 21.559 1.57098 21.0819C1.42826 20.6047 1.30718 20.1145 1.20771 19.6242C1.10824 19.1339 1.03905 18.6349 0.99148 18.1358C0.943909 17.6368 0.917969 17.1378 0.917969 16.6343C0.917969 16.1309 0.943909 15.6319 0.99148 15.1329C1.03905 14.6338 1.11257 14.1392 1.20771 13.6489C1.30285 13.1586 1.42826 12.6683 1.57098 12.1912C1.71426 11.7101 1.88169 11.2367 2.07263 10.7728C2.25932 10.3095 2.47007 9.85658 2.70402 9.41582C2.9374 8.97393 3.19289 8.54437 3.46948 8.12882C3.75779 7.70858 4.0461 7.30584 4.33441 6.92062C4.62271 6.5354 4.95571 6.16332 5.33339 5.80436C5.68368 5.44978 6.05128 5.11707 6.43184 4.79751C6.81241 4.47795 7.21459 4.18028 7.62542 3.90012C8.03626 3.61996 8.4644 3.36606 8.90119 3.12967C9.33797 2.89329 9.76611 2.69193 10.2418 2.48619C10.7175 2.28045 11.1673 2.12722 11.6387 1.97838C12.11 1.82955 12.5944 1.71137 13.0788 1.61507C13.5631 1.51876 14.0561 1.44434 14.5491 1.39619C15.5356 1.29697 16.5293 1.29697 17.5158 1.39619C18.0088 1.44434 18.4975 1.51876 18.9818 1.61507C19.4677 1.71138 19.9483 1.83263 20.4219 1.97838C20.8976 2.12722 21.3647 2.29358 21.8231 2.48619C22.2815 2.6788 22.727 2.89329 23.1637 3.12967C23.6005 3.36606 24.0287 3.62434 24.4352 3.90012C24.8482 4.17797 25.2466 4.47751 25.6288 4.79751C26.0137 5.11707 26.3769 5.44978 26.7272 5.80436C27.4287 6.51546 28.0602 7.29395 28.6127 8.12882C28.8852 8.56658 29.1403 8.97369 29.3739 9.41582C29.6074 9.85795 29.8063 10.2913 30.0096 10.7728C30.2128 11.2544 30.3642 11.7096 30.5112 12.1912C30.6552 12.6706 30.7751 13.1571 30.8702 13.6489C30.9653 14.1392 31.0389 14.6338 31.0864 15.1329C31.1306 15.6277 31.1493 16.1244 31.1427 16.6212Z" fill="#8B58C4"/>
<path d="M28.9801 16.6213C28.9815 17.0511 28.9613 17.4806 28.9195 17.9083C28.8763 18.3461 28.8157 18.7838 28.7336 19.1822C28.6512 19.6047 28.5473 20.0226 28.4222 20.4342C28.2994 20.8458 28.155 21.2506 27.9897 21.6467C27.8284 22.0443 27.6465 22.433 27.4448 22.8112C27.2459 23.1876 27.0124 23.5553 26.7918 23.9143C26.5713 24.2733 26.3031 24.6191 26.035 24.9474C25.7669 25.2757 25.4815 25.5996 25.1701 25.9061C24.8707 26.2139 24.556 26.5061 24.2273 26.7816C23.8987 27.053 23.557 27.3113 23.2067 27.5476C22.8564 27.784 22.4888 28.0073 22.1126 28.213C21.7364 28.4187 21.3558 28.5982 20.9623 28.7646C20.5687 28.9309 20.1709 29.071 19.7643 29.2023C19.3578 29.3337 18.947 29.43 18.5318 29.5131C17.6985 29.6794 16.8513 29.7644 16.0019 29.767C15.5773 29.7671 15.1529 29.7452 14.7305 29.7014C14.3081 29.6607 13.888 29.5979 13.472 29.5131C13.0396 29.43 12.6417 29.3249 12.2352 29.2023C11.8287 29.0798 11.4308 28.9309 11.0373 28.7646C10.6438 28.5982 10.2632 28.4144 9.88694 28.213C9.5107 28.0116 9.14744 27.7753 8.79715 27.5476C8.4429 27.31 8.1008 27.0543 7.7722 26.7816C7.44353 26.5102 7.13216 26.2212 6.82944 25.9061C6.52672 25.5909 6.24562 25.2801 5.96452 24.9474C5.69263 24.6171 5.43854 24.2723 5.20339 23.9143C4.96986 23.5553 4.74931 23.1876 4.55038 22.8112C4.35145 22.4347 4.16981 22.0407 4.00548 21.6467C3.84114 21.2527 3.70275 20.8457 3.57301 20.4342C3.44328 20.0227 3.34814 19.6024 3.26597 19.1822C3.1838 18.762 3.11893 18.3373 3.07569 17.9083C3.03244 17.4793 3.01514 17.0328 3.01514 16.6213C3.01514 16.2098 3.03677 15.7458 3.07569 15.3343C3.11461 14.9229 3.1838 14.4807 3.26597 14.0605C3.34814 13.6403 3.45193 13.2244 3.57301 12.8129C3.6941 12.4014 3.84114 11.9943 4.00548 11.6003C4.16981 11.2064 4.35145 10.8124 4.55038 10.4359C4.74931 10.0594 4.98283 9.68735 5.20339 9.32839C5.42394 8.96944 5.69207 8.62797 5.96452 8.29528C6.77052 7.29428 7.72111 6.4221 8.78417 5.70817C9.13576 5.46868 9.49953 5.24804 9.87397 5.04716C10.2472 4.84218 10.6312 4.65804 11.0243 4.49559C11.8102 4.1672 12.6255 3.91653 13.4591 3.74705C13.8915 3.66388 14.2937 3.6026 14.7175 3.55882C15.5629 3.47128 16.415 3.47128 17.2604 3.55882C17.6929 3.6026 18.0994 3.66388 18.5189 3.74705C18.9348 3.83043 19.3462 3.93562 19.7514 4.06222C20.1583 4.18582 20.5582 4.33196 20.9493 4.49997C21.3428 4.66157 21.7268 4.84573 22.0996 5.05154C22.4755 5.25239 22.8407 5.47303 23.1938 5.71255C23.544 5.94894 23.8857 6.20721 24.2144 6.47862C24.5441 6.75294 24.8588 7.04521 25.1571 7.35412C25.4611 7.65726 25.7498 7.97576 26.022 8.30842C26.2902 8.64111 26.541 8.98693 26.7789 9.34151C27.0155 9.69889 27.2335 10.0686 27.4319 10.449C27.6352 10.8264 27.8171 11.2151 27.9768 11.6134C28.1427 12.0093 28.2871 12.4141 28.4092 12.826C28.5343 13.2362 28.6382 13.6526 28.7206 14.0736C28.8028 14.5114 28.8633 14.9185 28.9066 15.3475C28.9522 15.7706 28.9767 16.1957 28.9801 16.6213Z" fill="white"/>
<path d="M16.0237 1.73782C13.1156 1.73782 10.2728 2.61073 7.85475 4.24616C5.43675 5.88159 3.55215 8.20608 2.43927 10.9257C1.32638 13.6453 1.03519 16.6379 1.60254 19.525C2.16988 22.4122 3.57027 25.0642 5.62662 27.1457C7.68296 29.2272 10.3029 30.6447 13.1551 31.219C16.0074 31.7933 18.9638 31.4985 21.6505 30.372C24.3373 29.2455 26.6337 27.3379 28.2493 24.8903C29.865 22.4427 30.7273 19.5651 30.7273 16.6214C30.7273 12.674 29.1782 8.88833 26.4207 6.09712C23.6633 3.30591 19.9233 1.73782 16.0237 1.73782ZM16.0237 32.3805C12.9445 32.3805 9.93448 31.4562 7.37424 29.7246C4.814 27.993 2.81852 25.5317 1.64018 22.6521C0.461826 19.7725 0.153513 16.6039 0.75423 13.547C1.35495 10.49 2.83772 7.68201 5.01503 5.47806C7.19233 3.27411 9.96638 1.77318 12.9864 1.16511C16.0064 0.557046 19.1367 0.869145 21.9815 2.06191C24.8263 3.25468 27.2578 5.27457 28.9685 7.86614C30.6792 10.4577 31.5923 13.5045 31.5923 16.6214C31.5877 20.7979 29.9454 24.8018 27.0262 27.7534C24.107 30.7051 20.1497 32.363 16.0237 32.363V32.3805Z" fill="#6B28B6"/>
<path d="M16.0237 29.7407C14.1382 29.7454 12.2744 29.3341 10.5619 28.5354C8.84951 27.7367 7.32964 26.5698 6.10816 25.1159C4.88668 23.662 3.99296 21.956 3.4892 20.1168C2.98545 18.2777 2.88378 16.3494 3.19127 14.4664C3.49876 12.5834 4.20802 10.7909 5.26967 9.21365C6.33133 7.63639 7.71985 6.31233 9.33856 5.33365C10.9573 4.35496 12.7673 3.74518 14.6426 3.54675C16.5178 3.34833 18.4133 3.56603 20.197 4.18471C20.2514 4.20328 20.2964 4.243 20.3219 4.29513C20.3475 4.34726 20.3515 4.40754 20.3332 4.46268C20.3148 4.51783 20.2756 4.56334 20.2241 4.5892C20.1726 4.61505 20.113 4.61915 20.0586 4.60058C17.1123 3.58478 13.8982 3.71419 11.041 4.96371C8.18382 6.21322 5.88771 8.49354 4.59905 11.3613C3.31039 14.2292 3.12125 17.4795 4.06841 20.4806C5.01557 23.4817 7.03136 26.0191 9.72389 27.5995C12.4164 29.1799 15.5933 29.6904 18.637 29.0317C21.6806 28.373 24.3736 26.5923 26.1923 24.0356C28.0111 21.4789 28.8257 18.329 28.4777 15.1982C28.1298 12.0674 26.6441 9.17947 24.3097 7.09574C24.2667 7.05701 24.2405 7.00287 24.2364 6.94481C24.2324 6.88676 24.2509 6.82939 24.288 6.78496C24.3292 6.74457 24.3842 6.72198 24.4416 6.72198C24.4989 6.72198 24.5539 6.74457 24.5951 6.78496C26.5677 8.54948 27.9633 10.8796 28.5967 13.466C29.23 16.0525 29.0711 18.7727 28.141 21.2655C27.2109 23.7583 25.5537 25.9058 23.3894 27.4227C21.2251 28.9396 18.6562 29.7541 16.0237 29.7582V29.7407Z" fill="#6B28B6"/>
<path d="M22.29 5.59027C22.2538 5.59045 22.2181 5.58142 22.1862 5.56401C21.9051 5.40204 21.6154 5.2532 21.3213 5.12625C21.2762 5.09806 21.243 5.05412 21.2278 5.00273C21.2126 4.95135 21.2166 4.8961 21.239 4.8475C21.2614 4.7989 21.3007 4.76032 21.3493 4.73908C21.398 4.71784 21.4526 4.71544 21.5029 4.73229C21.7912 4.87237 22.0796 5.02558 22.3679 5.19193C22.4168 5.22123 22.4528 5.26858 22.4681 5.32405C22.4834 5.37952 22.4769 5.43883 22.45 5.4896C22.4324 5.5173 22.4088 5.54069 22.3812 5.5581C22.3535 5.57551 22.3224 5.58649 22.29 5.59027Z" fill="#6B28B6"/>
<path d="M23.5876 6.43939C23.5415 6.43927 23.4964 6.42559 23.4579 6.40001C23.3195 6.29495 23.1811 6.18988 23.0254 6.09358C23.0018 6.07774 22.9816 6.05728 22.966 6.03341C22.9503 6.00953 22.9396 5.98272 22.9343 5.95456C22.9291 5.92641 22.9295 5.89747 22.9355 5.86947C22.9414 5.84146 22.9529 5.81497 22.9692 5.79153C23.0009 5.74355 23.05 5.71019 23.1059 5.69871C23.1618 5.68723 23.2199 5.69856 23.2676 5.73024C23.4189 5.83092 23.5617 5.94037 23.7 6.04543C23.7228 6.06268 23.7419 6.08429 23.7564 6.10902C23.7708 6.13375 23.7804 6.16112 23.7844 6.18958C23.7884 6.21803 23.7868 6.24699 23.7798 6.27483C23.7727 6.30268 23.7603 6.32887 23.7433 6.35186C23.7248 6.37661 23.7014 6.39717 23.6746 6.41225C23.6478 6.42732 23.6181 6.43656 23.5876 6.43939Z" fill="#6B28B6"/>
<path d="M10.406 13.1586C10.4044 13.0659 10.4252 12.9742 10.4666 12.8915C10.5055 12.8127 11.9888 10.7378 11.9888 10.7378C12.0312 10.6657 12.0905 10.6052 12.1613 10.5617C12.2322 10.5182 12.3126 10.493 12.3954 10.4883C12.5143 10.4886 12.6298 10.5286 12.724 10.6021C12.7708 10.6367 12.8086 10.6822 12.8342 10.7348C12.8598 10.7874 12.8725 10.8455 12.8711 10.9042V22.2069C12.8723 22.2692 12.8579 22.3309 12.8291 22.386C12.8004 22.4411 12.7583 22.488 12.7067 22.5221C12.5971 22.6014 12.4652 22.6428 12.3305 22.6403C12.1941 22.6454 12.06 22.6038 11.9499 22.5221C11.9005 22.4864 11.8605 22.439 11.8334 22.3841C11.8063 22.3291 11.7928 22.2683 11.7942 22.2069V12.3619L11.1412 13.4431C11.1096 13.4996 11.0646 13.5472 11.0102 13.5816C10.9559 13.616 10.8939 13.6361 10.8299 13.6401C10.7722 13.6415 10.715 13.6296 10.6626 13.6053C10.6101 13.5811 10.5638 13.5451 10.5271 13.5C10.4451 13.4061 10.4018 13.2839 10.406 13.1586Z" fill="#6B28B6"/>
<path d="M16.0236 19.1867C16.0236 20.8794 16.7804 21.7257 18.294 21.7257C19.8076 21.7257 20.5644 20.8794 20.5644 19.1867V14.0388C20.5644 12.3578 19.8076 11.5173 18.294 11.5173C16.7804 11.5173 16.0236 12.3578 16.0236 14.0388V19.1867ZM14.9468 19.1867V14.0388C14.9468 12.8218 15.2538 11.9288 15.8679 11.3597C16.5568 10.8046 17.4113 10.5024 18.2919 10.5024C19.1724 10.5024 20.0269 10.8046 20.7158 11.3597C21.3328 11.9288 21.6413 12.8218 21.6413 14.0388V19.1867C21.6413 20.4124 21.3342 21.3142 20.7158 21.8833C20.0269 22.4384 19.1724 22.7406 18.2919 22.7406C17.4113 22.7406 16.5568 22.4384 15.8679 21.8833C15.2538 21.3142 14.9468 20.4124 14.9468 19.1867Z" fill="#6B28B6"/>
</svg>
