<svg width="32" height="30" viewBox="0 0 32 30" fill="none" xmlns="http://www.w3.org/2000/svg">
<path d="M19.804 15.479H19.1467V16.7923H19.804C19.8955 16.803 19.9882 16.794 20.076 16.7659C20.1638 16.7378 20.2447 16.6912 20.3135 16.6292C20.3822 16.5672 20.4372 16.4911 20.4749 16.4061C20.5126 16.321 20.5321 16.2289 20.5321 16.1356C20.5321 16.0424 20.5126 15.9503 20.4749 15.8652C20.4372 15.7802 20.3822 15.7041 20.3135 15.6421C20.2447 15.5801 20.1638 15.5335 20.076 15.5054C19.9882 15.4773 19.8955 15.4683 19.804 15.479ZM19.804 18.1055H19.1467V20.0885C19.1467 20.2662 19.077 20.4365 18.9529 20.5621C18.8288 20.6878 18.6605 20.7583 18.485 20.7583C18.3095 20.7583 18.1412 20.6878 18.0172 20.5621C17.8931 20.4365 17.8233 20.2662 17.8233 20.0885V14.818C17.8245 14.6411 17.8947 14.4719 18.0187 14.3472C18.1426 14.2226 18.3103 14.1526 18.485 14.1526H19.7824C20.0477 14.14 20.3128 14.182 20.5616 14.2761C20.8104 14.3702 21.0377 14.5144 21.2299 14.6999C21.422 14.8855 21.575 15.1086 21.6795 15.3558C21.784 15.6029 21.8379 15.869 21.8379 16.1378C21.8379 16.4067 21.784 16.6727 21.6795 16.9199C21.575 17.167 21.422 17.3902 21.2299 17.5757C21.0377 17.7613 20.8104 17.9055 20.5616 17.9996C20.3128 18.0936 20.0477 18.1356 19.7824 18.123L19.804 18.1055ZM16.5043 20.0885C16.4909 20.2563 16.4156 20.4127 16.2934 20.5268C16.1712 20.6409 16.0111 20.7042 15.8448 20.7042C15.6786 20.7042 15.5185 20.6409 15.3963 20.5268C15.2741 20.4127 15.1988 20.2563 15.1853 20.0885V14.818C15.1988 14.6503 15.2741 14.4939 15.3963 14.3798C15.5185 14.2657 15.6786 14.2023 15.8448 14.2023C16.0111 14.2023 16.1712 14.2657 16.2934 14.3798C16.4156 14.4939 16.4909 14.6503 16.5043 14.818V20.0885ZM14.4848 15.0325L12.5041 20.3468C12.4564 20.4737 12.3717 20.583 12.2612 20.6601C12.1508 20.7372 12.0198 20.7784 11.8857 20.7784C11.7515 20.7784 11.6205 20.7372 11.5101 20.6601C11.3996 20.583 11.3149 20.4737 11.2672 20.3468L9.28656 15.0544C9.25624 14.9725 9.24226 14.8854 9.24544 14.798C9.24862 14.7106 9.26892 14.6247 9.30512 14.5453C9.34132 14.4659 9.39271 14.3946 9.45634 14.3355C9.51997 14.2763 9.59456 14.2305 9.67579 14.2008C9.84154 14.1366 10.0257 14.1416 10.1878 14.2146C10.3499 14.2876 10.4769 14.4228 10.5407 14.5904L11.9029 18.2281L13.2652 14.5904C13.2963 14.507 13.3435 14.4308 13.404 14.366C13.4644 14.3012 13.5369 14.2492 13.6174 14.2129C13.6978 14.1767 13.7846 14.157 13.8726 14.1549C13.9606 14.1528 14.0481 14.1684 14.1301 14.2008C14.2869 14.2677 14.4116 14.3939 14.4779 14.5525C14.5441 14.7111 14.5466 14.8896 14.4848 15.05V15.0325ZM30.9961 11.9332C30.9551 11.8166 30.8829 11.7138 30.7874 11.6365C30.6919 11.5591 30.5769 11.5103 30.4555 11.4955L20.8981 10.226L16.4438 1.27395C16.3885 1.1635 16.3041 1.07071 16.1999 1.00589C16.0957 0.941066 15.9758 0.906738 15.8535 0.906738C15.7312 0.906738 15.6112 0.941066 15.507 1.00589C15.4028 1.07071 15.3184 1.1635 15.2632 1.27395L10.8045 10.226L1.24714 11.4955C1.12649 11.5111 1.01248 11.5603 0.917802 11.6375C0.823128 11.7148 0.751516 11.8172 0.710889 11.9332C0.670299 12.0499 0.663796 12.176 0.692175 12.2963C0.720554 12.4167 0.78261 12.5262 0.870897 12.6117L7.87674 19.6158L5.9696 29.1894C5.94609 29.3113 5.95671 29.4373 6.00027 29.5534C6.04383 29.6694 6.1186 29.7708 6.2161 29.8461C6.31474 29.9213 6.43209 29.9672 6.55505 29.9788C6.678 29.9904 6.8017 29.9672 6.91236 29.9117L15.8556 25.4291L24.7989 29.9117C24.89 29.9585 24.9909 29.9825 25.093 29.9818C25.1902 29.9823 25.2864 29.9609 25.3745 29.9193C25.4626 29.8776 25.5405 29.8167 25.6026 29.7409C25.6646 29.6652 25.7093 29.5764 25.7333 29.481C25.7574 29.3856 25.7602 29.2861 25.7417 29.1894L23.8302 19.6158L30.8404 12.6117C30.9239 12.5267 30.9825 12.42 31.01 12.3034C31.0375 12.1868 31.0327 12.0648 30.9961 11.9507V11.9332Z" fill="white"/>
</svg>
