<svg width="32" height="32" viewBox="0 0 32 32" fill="none" xmlns="http://www.w3.org/2000/svg">
<path d="M19.9627 21.6582L19.5865 22.9714H20.3822L20.0146 21.6582H19.9627ZM12.6109 21.6582L12.2303 22.9714H13.0217L12.6498 21.6582H12.6109ZM22.8905 20.8527H23.7554V23.6543H25.2171V24.3985H22.8732L22.8905 20.8527ZM19.5 20.8527H20.5725L21.7358 24.3985H20.7628L20.5465 23.6193H19.4178L19.2016 24.3985H18.3367L19.5 20.8527ZM15.1754 20.8527H16.0403V23.6543H17.502V24.3985H15.1581L15.1754 20.8527ZM12.1482 20.8527H13.2206L14.384 24.3985H13.4239L13.212 23.6193H12.0833L11.8584 24.3985H10.9935L12.1482 20.8527ZM7.04942 20.8527H7.91434V22.2447H9.29389V20.8527H10.1588V24.3985H9.29389V22.967H7.91434V24.3985H7.04942V20.8527ZM11.2875 9.51488C11.2875 9.51488 15.1797 10.7756 14.7126 15.2057C14.7126 15.2057 14.2369 13.2358 13.359 12.6054C12.4811 11.975 11.3654 12.137 11.2875 10.9507C11.21 10.4761 11.1984 9.99279 11.253 9.51488H11.2875ZM17.7096 8.10533C17.7157 8.14008 17.7157 8.17565 17.7096 8.21039C17.7096 8.21039 18.2026 7.94775 18.2934 10.6049C18.3842 13.2621 18.2934 16.9786 19.7984 17.1712C21.3033 17.3638 23.111 17.2587 24.097 16.2957C24.097 16.2957 21.9347 15.0131 20.8752 15.6172C20.0492 16.0549 19.807 16.4314 19.7422 16.5758C19.8546 16.1819 20.5811 13.9712 21.8655 13.818C23.271 13.6473 24.6808 14.9299 25.6712 15.3633C26.4376 15.6231 27.2506 15.7112 28.054 15.6215L27.081 17.3244C26.2722 17.2322 25.4533 17.3188 24.6809 17.5783C22.951 18.2699 20.5422 19.1279 19.301 18.5238C18.0599 17.9197 17.6188 16.3351 17.6188 11.2002C17.6188 11.2002 17.0436 14.8029 16.2176 16.5189C15.3916 18.2349 13.0736 19.8546 9.84746 19.338C9.84746 19.338 15.6381 17.9679 16.7192 12.4916C17.4977 8.37675 17.649 8.02654 17.675 8.10533H17.7096ZM10.228 5.9691C10.228 5.9691 10.6605 7.51875 11.253 7.86896C10.9488 8.45367 10.7998 9.10829 10.8205 9.76879C10.8205 10.9726 11.4216 15.639 11.08 16.5014C10.7383 17.3638 9.28524 19.5219 7.23971 19.4387C5.19417 19.3556 4.33358 18.1255 4.25141 16.9304C4.16925 15.7353 4.75737 14.6147 5.52715 13.6648C5.41904 13.888 4.22977 16.4533 5.44931 17.2806C6.16546 17.6914 6.98609 17.8775 7.80694 17.8151C8.62779 17.7528 9.41181 17.4448 10.0594 16.9304C11.1621 15.9017 9.46256 7.35239 9.46256 7.35239C9.73367 6.90671 9.97774 6.44477 10.1934 5.9691H10.228ZM16.1527 0.27832C13.1052 0.27832 10.1261 1.19309 7.59219 2.90692C5.05826 4.62075 3.08331 7.05668 1.91707 9.90668C0.750828 12.7567 0.445672 15.8927 1.04021 18.9183C1.63476 21.9438 3.10228 24.723 5.25721 26.9043C7.41214 29.0856 10.1577 30.571 13.1467 31.1729C16.1356 31.7747 19.2338 31.4658 22.0493 30.2853C24.8649 29.1048 27.2714 27.1057 28.9645 24.5407C30.6576 21.9758 31.5613 18.9603 31.5613 15.8754C31.5521 11.7372 29.9205 7.77191 27.0248 4.85067C24.1292 1.92943 20.2063 0.29117 16.1181 0.295821L16.1527 0.27832Z" fill="white"/>
</svg>
