<svg width="32" height="33" viewBox="0 0 32 33" fill="none" xmlns="http://www.w3.org/2000/svg">
<path d="M31.3179 14.0149C31.4325 15.3139 31.4325 16.6206 31.3179 17.9196C31.0541 21.0536 29.8636 24.0344 27.9014 26.4733C26.6503 27.8723 25.1642 29.0357 23.512 29.9096C22.6062 30.4121 21.6583 30.8325 20.6793 31.166C20.0436 31.3849 19.382 31.7657 18.7808 31.7657C17.211 31.7176 15.6541 31.8183 14.1016 31.5337C13.2825 31.415 12.4699 31.2543 11.6668 31.0522C10.2657 30.6451 9.11102 29.6076 7.86553 28.8897C6.48083 28.0233 5.30003 26.8609 4.40584 25.484C3.81337 24.6435 3.10847 23.9256 2.58087 23.0369C2.11814 22.2752 2.02732 21.3078 1.71595 20.4848C1.39994 19.6095 1.17667 18.7026 1.04994 17.7795C0.901353 16.6547 0.882484 15.5162 0.993723 14.3869C1.22909 12.8555 1.63982 11.3571 2.21759 9.92186C2.68465 8.63487 3.08252 7.3829 4.03826 6.39358C4.78168 5.57812 5.57617 4.81193 6.4168 4.09976C8.67908 2.35056 11.3262 1.18203 14.1319 0.694061C17.3018 0.151248 20.4977 0.934815 23.339 2.35313C24.9477 3.16297 26.1673 4.27925 27.5209 5.44804C29.0042 6.72628 29.7913 8.56921 30.3924 10.3946C30.8365 11.565 31.1483 12.7824 31.3222 14.0236M29.2075 23.7242C30.4006 21.4904 31.0179 18.9881 31.0022 16.4488C31.0488 15.2389 30.9735 14.0273 30.7773 12.8329C30.4624 11.4687 30.0282 10.1357 29.4799 8.84939C28.4636 6.34982 26.1456 4.29237 23.8579 3.001C21.3303 1.52326 18.4464 0.78663 15.5287 0.873528C12.5362 1.07779 9.66128 2.13229 7.23413 3.91591C6.12486 4.77624 5.0904 5.73111 4.14205 6.77006C3.20793 7.71123 2.88792 9.09451 2.44681 10.3115C1.53864 12.8242 1.024 15.2581 1.43484 17.9327C1.68743 19.1487 2.00504 20.3499 2.38626 21.5311C2.70628 22.7217 3.35498 23.5272 4.06854 24.499C4.75485 25.4975 5.52923 26.4308 6.38219 27.2875C7.42658 28.2094 8.57306 29.0056 9.79864 29.6601C10.8526 30.3417 12.0277 30.8086 13.2583 31.0347C14.6507 31.265 16.0596 31.3777 17.4705 31.3717C18.0088 31.4418 18.5539 31.4418 19.0922 31.3717C19.6025 31.2185 20.0436 31.0215 20.5453 30.8245C21.7364 30.3717 22.8927 29.8303 24.005 29.2049C26.213 27.9085 28.0159 26.0092 29.2075 23.7242Z" fill="white"/>
<path d="M31.002 16.4663C31.0148 18.9997 30.3976 21.4956 29.2073 23.7242C28.0179 26.0042 26.2198 27.9002 24.0177 29.1961C22.9055 29.8216 21.7491 30.363 20.5581 30.8158C20.0564 31.0128 19.6153 31.2098 19.105 31.363C18.5666 31.4331 18.0216 31.4331 17.4833 31.363C16.0724 31.369 14.6635 31.2562 13.2711 31.0259C12.0405 30.7999 10.8653 30.333 9.81142 29.6514C8.58583 28.9968 7.43936 28.2006 6.39497 27.2788C5.54201 26.422 4.76762 25.4887 4.08131 24.4903C3.36775 23.5185 2.71906 22.713 2.39904 21.5223C2.01782 20.3412 1.70024 19.14 1.44764 17.924C1.01518 15.2493 1.55142 12.8154 2.45959 10.3027C2.89205 9.08579 3.22071 7.70248 4.15483 6.76131C5.10317 5.72236 6.13766 4.76748 7.24693 3.90716C9.67408 2.12354 12.549 1.06906 15.5415 0.864799C18.4592 0.777902 21.3431 1.51453 23.8707 2.99227C26.1628 4.28364 28.4807 6.34107 29.4927 8.84063C30.0411 10.1269 30.4752 11.46 30.7901 12.8242C30.9863 14.0186 31.0617 15.2301 31.015 16.44M30.4095 18.4712C30.4889 17.8103 30.5293 17.1452 30.5306 16.4794C30.5306 15.1005 30.5955 13.7391 30.1501 12.4171C29.6614 10.9769 29.363 9.44034 28.5759 8.11833C27.8116 6.94962 26.877 5.90472 25.8038 5.01906C23.3942 2.89618 20.3671 1.62535 17.1805 1.39884C14.0192 1.21061 11.0742 2.17368 8.35836 3.76272C7.06863 4.58896 5.89351 5.58559 4.86407 6.72628C3.79156 7.81629 3.39802 9.06388 2.88339 10.4734C2.2693 12.1851 1.71144 14.0061 1.74171 15.8403C1.79286 16.8118 1.9099 17.7786 2.09201 18.7338C2.20877 19.4517 2.55041 20.0952 2.68015 20.7956C2.98719 22.4372 3.89536 23.4222 4.84245 24.7354C5.38068 25.5614 6.00721 26.3247 6.71068 27.0117C7.39991 27.5773 8.12197 28.1007 8.87299 28.5789C10.1444 29.4544 11.4937 30.3299 13.0462 30.575C14.5141 30.8228 15.9995 30.9487 17.4876 30.9515C18.3525 30.9515 19.1223 31.0303 19.9094 30.6451C20.3418 30.4306 20.8219 30.2905 21.2803 30.1023C22.5516 29.5885 23.7592 28.9259 24.8784 28.128C26.167 27.2726 27.262 26.1507 28.0915 24.8361C28.8094 23.5666 29.6614 22.2096 29.9338 20.7387C30.0636 19.9333 30.3317 19.2416 30.4095 18.4712Z" fill="#6B28B6"/>
<path d="M30.5305 16.4662C30.5293 17.1319 30.4888 17.797 30.4094 18.4579C30.3316 19.2415 30.0635 19.9332 29.9164 20.6992C29.644 22.1526 28.792 23.5271 28.0741 24.7966C27.2447 26.1112 26.1496 27.2331 24.861 28.0885C23.7418 28.8864 22.5342 29.549 21.2629 30.0627C20.8045 30.251 20.3374 30.391 19.892 30.6055C19.1049 30.9908 18.3179 30.912 17.4702 30.912C15.9821 30.9091 14.4967 30.7832 13.0288 30.5355C11.4763 30.2772 10.127 29.4368 8.85559 28.5394C8.10458 28.0611 7.38252 27.5378 6.69329 26.9722C5.98982 26.2852 5.36331 25.5218 4.82508 24.6959C3.88664 23.3826 2.97848 22.4196 2.66278 20.7561C2.53304 20.0557 2.19138 19.4122 2.07461 18.6943C1.89251 17.7391 1.77547 16.7723 1.72432 15.8008C1.69405 13.9666 2.25193 12.1455 2.86602 10.4339C3.38065 9.02438 3.7742 7.77678 4.8467 6.68678C5.87614 5.54609 7.05124 4.54943 8.34096 3.72319C11.0568 2.13415 14.0019 1.17108 17.1632 1.35931C20.3503 1.58705 23.3774 2.85944 25.7864 4.98392C26.8596 5.86957 27.7942 6.9145 28.5585 8.08321C29.3456 9.39647 29.644 10.9417 30.1327 12.3819C30.5651 13.6952 30.4916 15.0653 30.5132 16.4443M28.312 18.2872C28.7334 16.0957 28.5263 13.8278 27.7152 11.7516C27.1919 10.3333 26.3616 9.09441 25.7086 7.74175C25.6874 7.70642 25.6575 7.67721 25.6219 7.65695C25.5863 7.63668 25.5462 7.62603 25.5053 7.62603C25.4645 7.62603 25.4243 7.63668 25.3887 7.65695C25.3531 7.67721 25.3233 7.70642 25.3021 7.74175C24.3031 9.26513 22.7073 10.2194 21.3753 11.3839C19.944 12.6605 18.5867 14.0198 17.3102 15.4549C14.7544 18.2347 11.978 20.8043 9.52593 23.6803C8.9767 24.3282 7.01764 25.9348 8.5053 26.7183C9.1194 27.0423 9.84161 27.1561 10.4817 27.4231C11.2904 27.7689 12.112 27.9397 12.938 28.2198C14.3219 28.6882 15.9307 28.4737 17.3621 28.4693C18.4197 28.3947 19.459 28.1509 20.4412 27.747C21.4084 27.4583 22.3388 27.0557 23.2133 26.5476C24.0114 25.9621 24.7234 25.265 25.328 24.477C26.8451 22.7228 27.8801 20.5958 28.3293 18.3091L28.312 18.2872ZM26.2924 4.69501C26.3273 4.67354 26.3562 4.6433 26.3762 4.60727C26.3962 4.57123 26.4067 4.5306 26.4067 4.48925C26.4067 4.44791 26.3962 4.40727 26.3762 4.37124C26.3562 4.3352 26.3273 4.305 26.2924 4.28352C25.0642 3.69256 23.9312 2.93961 22.6554 2.43619C20.6022 1.58768 18.3573 1.33013 16.1685 1.69201C13.9045 2.06975 11.7847 3.06394 10.0362 4.56805C9.26847 5.19932 8.56445 5.9061 7.93448 6.67802C7.31223 7.63511 6.85047 8.68971 6.56789 9.79919C6.26949 10.736 5.87596 11.7647 5.88029 12.7584C5.88029 14.1942 5.66405 15.8533 6.11814 17.2366C6.59817 18.7206 7.01765 20.2308 7.62309 21.6754C8.35827 23.4264 9.95837 21.4478 10.6979 20.7999C13.5175 18.2916 16.0258 15.4593 18.759 12.8503C20.0563 11.6071 21.3537 10.342 22.5127 8.9806C21.544 9.37895 22.4997 7.62793 24.0912 6.53793L26.2924 4.69501Z" fill="#FF0000"/>
<path d="M27.7328 11.7735C28.5439 13.8497 28.751 16.1176 28.3296 18.3091C27.8878 20.6022 26.8571 22.7371 25.3413 24.499C24.7368 25.2869 24.0247 25.9841 23.2266 26.5695C22.3521 27.0776 21.4217 27.4802 20.4545 27.769C19.4723 28.1728 18.433 28.4166 17.3754 28.4913C15.944 28.4913 14.3482 28.7101 12.9513 28.2417C12.1253 27.9616 11.3037 27.804 10.495 27.445C9.85492 27.1692 9.13271 27.0642 8.51862 26.7402C7.03095 25.9567 8.98999 24.3501 9.53922 23.7022C11.9913 20.8262 14.7677 18.2566 17.3235 15.4769C18.6 14.0417 19.9573 12.6825 21.3886 11.4058C22.7379 10.2413 24.3164 9.28704 25.3154 7.76367C25.3366 7.72834 25.3665 7.69913 25.4021 7.67886C25.4377 7.65859 25.4778 7.64795 25.5186 7.64795C25.5595 7.64795 25.5996 7.65859 25.6352 7.67886C25.6708 7.69913 25.7007 7.72834 25.7219 7.76367C26.3749 9.11632 27.2052 10.3552 27.7285 11.7735M28.0442 16.9565C28.1618 14.923 27.7768 12.8919 26.9241 11.0468C26.4917 10.11 25.9554 9.22576 25.484 8.31524C24.5283 9.58034 23.1963 10.4602 21.9941 11.4977C20.5552 12.7689 19.188 14.1207 17.8987 15.5469C17.6998 15.7658 17.4965 15.9847 17.2932 16.1948C17.6392 16.1948 17.9981 16.1948 18.3182 16.1948C19.1009 16.1948 19.8794 16.1423 20.6578 16.1423C21.4362 16.1423 22.3141 15.884 22.5217 16.7289C23.0579 18.9176 22.3141 21.6667 19.9269 22.2008H19.8794C19.8015 23.1769 19.9442 24.1794 19.9442 25.1556C19.9442 25.9435 21.1248 25.5933 21.2416 26.3769C21.2541 26.4279 21.2504 26.4816 21.231 26.5303C21.2116 26.5791 21.1774 26.6204 21.1335 26.6483C20.4632 27.0861 19.3604 27.0117 18.5906 26.9591C18.1841 26.9285 17.1462 27.0467 16.9603 26.5695C16.9493 26.5296 16.9492 26.4874 16.9598 26.4473C16.9705 26.4073 16.9915 26.3709 17.0208 26.3419C17.6306 25.6283 18.7506 26.2412 18.7506 24.8667C18.7506 24.0437 18.716 22.5334 18.7074 22.1088C16.7354 21.5222 16.0088 19.0971 16.3548 17.1491L16.0477 17.4687C16.0506 17.4904 16.0506 17.5125 16.0477 17.5343C16.0477 19.5523 16.0996 21.566 16.0996 23.584C16.0996 24.3326 16.2683 25.3657 16.0564 26.1011C15.9223 26.587 15.5072 26.6965 15.0574 26.8103C14.2219 26.9648 13.3713 27.0192 12.5232 26.9722C11.9437 26.9722 11.2518 27.0335 10.7198 26.7315C10.4085 26.5564 10.0668 26.4207 10.0668 26.0136C10.0668 25.3044 9.98466 24.6215 9.92411 23.9211L9.83762 24.0174C9.5003 24.4158 9.13271 24.7879 8.79107 25.1862C8.28509 25.7772 8.62673 26.3113 9.2711 26.4995C9.75483 26.643 10.2311 26.811 10.6982 27.0029C11.9306 27.5542 13.2469 27.8887 14.5904 27.9922C15.8331 28.093 17.0829 28.0578 18.3182 27.8872C19.3279 27.6644 20.3152 27.3479 21.2675 26.9416C25.1337 25.5364 27.7761 20.9882 28.0312 16.9565H28.0442ZM21.7087 14.3037C21.8427 13.9272 22.1974 11.4671 21.527 11.4671C20.7183 11.4671 19.9096 11.4933 19.1009 11.4933C18.2922 11.4933 17.3711 11.3226 16.6445 11.5502C16.1126 13.3406 16.6445 16.0065 18.6425 16.5187C18.7593 16.5187 18.8804 16.6194 18.8804 16.8251C18.8804 17.4468 18.9279 18.2303 18.9279 18.9395C18.9898 19.5231 18.9694 20.1127 18.8674 20.6905C18.7723 21.0276 18.1495 21.1852 17.8814 21.2552L17.7906 21.2771C17.8857 21.2771 17.9852 21.2771 18.0803 21.2771C18.6411 21.3274 19.2048 21.3362 19.7669 21.3033C20.0152 21.3043 20.261 21.2537 20.4891 21.1545L19.7799 20.9181C19.6015 20.8618 19.4356 20.7711 19.2912 20.6511C19.0015 20.3578 19.1615 19.4823 19.1485 19.119C19.0859 18.3633 19.0772 17.604 19.1226 16.847C19.1312 16.7816 19.1643 16.7221 19.2149 16.6805C19.2656 16.639 19.33 16.6187 19.395 16.6238C19.4233 16.5949 19.4594 16.575 19.4988 16.5669C21.0643 21.4741 21.5962 20.6599 22.0244 19.4867L21.7087 14.3037ZM15.3342 20.4322C15.4553 17.8889 15.3342 15.3237 15.3039 12.7759C13.5265 14.597 11.7231 16.3961 10.0452 18.3047C10.0644 18.3351 10.0763 18.3696 10.0798 18.4054C10.123 19.0183 10.2571 19.6049 10.2571 20.2133C10.2571 20.511 10.136 20.8656 10.4474 21.0363C10.7923 21.2328 11.1804 21.3381 11.5761 21.3428C12.7611 26.517 15.5893 26.854 15.6499 25.6065L15.3342 20.4322Z" fill="#6B28B6"/>
<path d="M26.9284 11.0295C27.7811 12.8746 28.166 14.9057 28.0484 16.9392C27.776 20.9709 25.1337 25.5191 21.2977 26.955C20.3454 27.3612 19.3581 27.6777 18.3484 27.9005C17.1131 28.0711 15.8633 28.1064 14.6205 28.0056C13.277 27.9021 11.9608 27.5675 10.7284 27.0163C10.2613 26.8244 9.78502 26.6563 9.30129 26.5128C8.65692 26.3115 8.31528 25.7774 8.82126 25.1996C9.1629 24.8012 9.53049 24.4291 9.86781 24.0308L9.9543 23.9345C10.0148 24.6349 10.097 25.3178 10.097 26.0269C10.097 26.434 10.4386 26.5698 10.75 26.7449C11.2819 27.0469 11.9739 26.9856 12.5534 26.9856C13.4015 27.0326 14.2521 26.9782 15.0876 26.8236C15.5201 26.7098 15.9525 26.6004 16.0866 26.1145C16.2985 25.3791 16.1298 24.3635 16.1298 23.5974C16.1298 21.5794 16.0952 19.5657 16.0779 17.5477C16.0808 17.5259 16.0808 17.5038 16.0779 17.482L16.385 17.1625C16.039 19.1104 16.7656 21.54 18.7376 22.1222C18.7376 22.5599 18.7808 24.0571 18.7808 24.88C18.7808 26.2546 17.6737 25.6417 17.051 26.3552C17.0217 26.3843 17.0007 26.4207 16.99 26.4607C16.9794 26.5007 16.9795 26.5429 16.9904 26.5829C17.1764 27.06 18.2143 26.9418 18.6208 26.9725C19.3906 27.025 20.4934 27.1213 21.1637 26.6617C21.2076 26.6337 21.2418 26.5924 21.2612 26.5437C21.2806 26.495 21.2843 26.4413 21.2718 26.3903C21.1334 25.6111 19.9744 25.9525 19.9744 25.1689C19.9744 24.1927 19.8317 23.1903 19.9095 22.2141H19.9571C22.3357 21.68 23.0795 18.9178 22.5519 16.7422C22.3443 15.8973 21.4145 16.1556 20.688 16.1556C19.9614 16.1556 19.1311 16.2082 18.3484 16.2082C18.0283 16.2082 17.6694 16.1775 17.3234 16.2082C17.5267 15.9937 17.7299 15.7704 17.9289 15.5603C19.2182 14.1341 20.5854 12.7822 22.0243 11.5111C23.2265 10.4736 24.5585 9.59372 25.5142 8.32861C25.9856 9.23914 26.5348 10.1234 26.9543 11.0602" fill="white"/>
<path d="M24.0914 6.12673C24.1263 6.1482 24.1551 6.17841 24.1751 6.21444C24.1952 6.25048 24.2057 6.29114 24.2057 6.33249C24.2057 6.37383 24.1952 6.41446 24.1751 6.4505C24.1551 6.48654 24.1263 6.51674 24.0914 6.53822C22.4999 7.62822 21.5441 9.37924 20.2943 10.8194C19.1137 12.1809 17.838 13.4459 16.5406 14.6892C13.8074 17.3157 11.2992 20.1304 8.47951 22.6388C7.74 23.291 6.1399 25.2653 5.40472 23.5143C4.79928 22.0697 4.3798 20.5594 3.89977 19.0754C3.44568 17.6922 3.67057 16.0331 3.66192 14.5973C3.66192 13.6036 4.05112 12.5748 4.34952 11.638C4.6321 10.5286 5.09386 9.47396 5.71611 8.51686C6.34607 7.74495 7.0501 7.03817 7.81786 6.4069C9.56631 4.90279 11.6861 3.90859 13.9501 3.53086C16.1389 3.16898 18.3838 3.42653 20.4371 4.27504C21.7128 4.77846 22.8459 5.53138 24.074 6.12235M20.4198 9.9308C21.4188 8.69196 22.2923 7.33932 23.5378 6.36313C22.621 5.87723 21.6653 5.31688 20.6879 4.88788C18.7171 3.96379 16.5255 3.63254 14.374 3.93358C10.4126 4.59459 6.29991 7.11605 4.99821 11.1084C4.63019 12.0552 4.34792 13.034 4.1549 14.0325C3.82387 16.6379 4.2022 19.2852 5.24904 21.6888C5.44797 22.1572 5.56474 22.6475 5.74205 23.1247C6.24371 24.5036 7.57134 22.7876 8.12922 22.3017C8.74331 21.7589 9.33579 21.1985 9.92394 20.6338C9.92394 20.6338 9.92394 20.6338 9.92394 20.5988C10.0321 18.6246 10.0493 16.6591 10.0493 14.6717C10.0493 13.4241 9.98016 11.4761 11.4073 10.9814V8.17102C11.4073 7.80331 11.4332 7.43124 11.4462 7.06352C11.4462 6.92344 11.4462 6.83589 11.4462 6.78336C10.9835 6.66516 11.0137 6.06107 11.1435 5.66271C11.4203 4.73468 12.4711 4.99732 13.215 4.99732C13.842 4.99732 14.2918 4.99734 14.335 5.70212C14.335 5.95602 14.4518 6.36313 14.2399 6.57763C13.9545 6.87092 13.9545 6.49007 14.0972 7.23425C14.3164 8.43622 14.3875 9.66103 14.3091 10.8807C14.3091 10.6224 15.1394 11.3885 15.174 11.4367C15.4021 11.6852 15.5682 11.9854 15.6584 12.3122C15.8611 13.0477 15.9658 13.8074 15.9697 14.571L16.4281 14.1332C17.8504 12.8207 19.1894 11.4185 20.4371 9.93518L20.4198 9.9308ZM15.5848 14.9693C15.481 14.0938 15.5546 13.1132 15.187 12.2771C15.1042 12.0435 14.9689 11.8325 14.7918 11.6608C14.6147 11.4891 14.4006 11.3614 14.1664 11.2878C14.0885 11.2572 13.9761 11.2309 13.9372 11.1434C13.6431 10.5261 13.8031 9.48429 13.8031 8.80577C13.8031 8.04408 13.548 7.26926 13.5999 6.51195C13.5999 6.385 13.6863 6.33247 13.7815 6.26243C14.0064 6.10046 13.9112 5.99102 13.9112 5.68898C13.9112 5.30813 12.5663 5.46136 12.3414 5.46136C11.9089 5.46136 11.2213 6.16614 11.8268 6.33687C12.1771 6.43317 12.0473 7.12043 12.0473 7.33931V11.0777C12.0458 11.1004 12.0376 11.1222 12.0237 11.1402C12.0098 11.1581 11.9909 11.1714 11.9695 11.1784C11.9654 11.2224 11.947 11.2639 11.9173 11.2963C11.8876 11.3288 11.8482 11.3504 11.8051 11.3579C10.0277 11.7256 10.5078 14.9868 10.5467 16.2914C10.5856 17.5959 10.5121 18.8653 10.4429 20.1479C12.1771 18.4714 13.855 16.6853 15.5848 14.9693Z" fill="#6B28B6"/>
<path d="M23.5549 6.36752C22.3094 7.34371 21.4358 8.69637 20.4368 9.93521C19.2022 11.4082 17.8778 12.8015 16.4712 14.107L16.0128 14.5448C16.0088 13.7811 15.9041 13.0215 15.7014 12.2859C15.6112 11.9592 15.4451 11.659 15.217 11.4104C15.1781 11.3623 14.3521 10.5962 14.3521 10.8545C14.4305 9.63479 14.3594 8.40999 14.1402 7.20802C13.9975 6.46384 13.9975 6.84469 14.2829 6.55139C14.4948 6.3369 14.391 5.92979 14.378 5.67589C14.3348 4.97111 13.8851 4.97109 13.258 4.97109C12.5142 4.97109 11.4633 4.70845 11.1865 5.63648C11.0697 6.03484 11.0265 6.63893 11.4892 6.75713C11.4892 6.80966 11.4892 6.89721 11.4892 7.03729C11.4892 7.405 11.4503 7.77708 11.4503 8.14479V10.9552C10.0232 11.4498 10.0924 13.3978 10.0924 14.6454C10.0924 16.6241 10.0924 18.5852 9.96694 20.5726C9.96694 20.5726 9.96694 20.5726 9.96694 20.6076C9.3788 21.1723 8.78634 21.7326 8.17225 22.2754C7.61437 22.7614 6.28671 24.4642 5.78506 23.0984C5.60775 22.6213 5.49098 22.131 5.29204 21.6626C4.24521 19.259 3.8669 16.6116 4.19793 14.0063C4.39095 13.0077 4.67322 12.029 5.04124 11.0821C6.33862 7.08982 10.4556 4.56836 14.417 3.90735C16.5685 3.60631 18.7601 3.93756 20.7309 4.86165C21.7083 5.2994 22.664 5.851 23.5808 6.3369" fill="white"/>
<path d="M21.8424 16.6505C22.5127 16.6505 22.1581 19.1106 22.024 19.4871C21.5915 20.6515 21.064 21.4745 19.8141 21.7546C19.7747 21.7628 19.7386 21.7826 19.7104 21.8116C19.6454 21.8065 19.5809 21.8268 19.5303 21.8683C19.4796 21.9099 19.4465 21.9694 19.4379 22.0348C19.3925 22.7918 19.4012 23.5511 19.4638 24.3068C19.4638 24.6701 19.3168 25.5456 19.6066 25.8389C19.751 25.9589 19.9169 26.0495 20.0952 26.1059L20.8045 26.3423C20.5763 26.4415 20.3305 26.4921 20.0823 26.4911C19.5202 26.524 18.9565 26.5152 18.3957 26.4649C18.3005 26.4649 18.2011 26.4649 18.1059 26.4649L18.1967 26.443C18.4649 26.3729 19.0876 26.2153 19.1827 25.8783C19.2847 25.3004 19.3051 24.7109 19.2433 24.1273C19.2433 23.4181 19.1957 22.6345 19.1957 22.0129C19.1957 21.8072 19.0746 21.7065 18.9579 21.7065C16.9772 21.1943 16.428 18.5284 16.9599 16.738C17.6864 16.5104 18.6897 16.6811 19.4163 16.6811C20.1428 16.6811 21.0337 16.6548 21.8424 16.6548" fill="#6B28B6"/>
<path d="M15.6195 17.9502C15.6455 20.4979 15.7709 23.0631 15.6498 25.6065C15.5893 26.8541 12.761 26.517 11.8917 26.517C11.4961 26.5124 11.1079 26.407 10.763 26.2106C10.4517 26.0399 10.5727 25.6853 10.5727 25.3876C10.5727 24.7791 10.4387 24.1925 10.3954 23.5797C10.3919 23.5438 10.3801 23.5093 10.3608 23.479C12.0388 21.5704 13.8421 19.7712 15.6195 17.9502Z" fill="#6B28B6"/>
<path d="M15.187 12.2813C15.5545 13.1174 15.481 14.0849 15.5848 14.9735C13.855 16.6851 12.177 18.4755 10.4429 20.1521C10.5121 18.8695 10.5683 17.5738 10.5467 16.2955C10.525 15.0173 10.0277 11.7298 11.8051 11.3621C11.8482 11.3546 11.8876 11.3329 11.9173 11.3005C11.947 11.268 11.9653 11.2266 11.9694 11.1826C11.9909 11.1756 12.0098 11.1623 12.0237 11.1443C12.0375 11.1264 12.0458 11.1046 12.0473 11.0819V7.34349C12.0473 7.12461 12.177 6.43732 11.8268 6.34102C11.2213 6.17029 11.9002 5.46551 12.3414 5.46551C12.5662 5.46551 13.9112 5.31231 13.9112 5.69315C13.9112 5.9952 14.0063 6.10464 13.7815 6.26661C13.6863 6.33665 13.6085 6.38918 13.5998 6.51613C13.5479 7.27344 13.8031 8.04826 13.8031 8.80995C13.8031 9.48846 13.6431 10.5303 13.9371 11.1476C13.9761 11.2351 14.0885 11.2614 14.1664 11.292C14.4006 11.3656 14.6147 11.4933 14.7918 11.665C14.9689 11.8367 15.1042 12.0477 15.187 12.2813Z" fill="#6B28B6"/>
<path d="M6.33446 21.8419C6.5161 21.8419 6.68043 22.0433 6.81449 22.1527C6.85994 22.1949 6.91935 22.2183 6.98099 22.2183C7.04263 22.2183 7.10204 22.1949 7.14749 22.1527C7.19107 22.1077 7.21549 22.0472 7.21549 21.9842C7.21549 21.9212 7.19107 21.8607 7.14749 21.8157C6.93152 21.5831 6.64571 21.4292 6.33446 21.3779C6.03174 21.3779 6.03174 21.8157 6.33446 21.8507" fill="#6B28B6"/>
<path d="M6.37324 20.7783C6.58082 20.9532 6.80376 21.1085 7.03924 21.2424C7.27709 21.3781 7.54088 21.4612 7.77873 21.6013C7.80514 21.6171 7.83438 21.6275 7.86475 21.6319C7.89513 21.6363 7.92605 21.6345 7.95577 21.6268C7.98548 21.6191 8.0134 21.6055 8.03793 21.5869C8.06247 21.5682 8.08313 21.5449 8.09875 21.5182C8.11437 21.4914 8.12465 21.4618 8.12897 21.4311C8.13329 21.4003 8.13159 21.369 8.12396 21.339C8.11633 21.3089 8.10292 21.2806 8.0845 21.2558C8.06607 21.2309 8.04299 21.21 8.01658 21.1942C7.56458 20.9794 7.13067 20.7276 6.7192 20.4413C6.48999 20.2487 6.15702 20.5814 6.39055 20.7783" fill="#6B28B6"/>
<path d="M7.27279 20.1478C7.49803 20.2517 7.71492 20.3732 7.92148 20.5112L8.54423 20.8482C8.81235 20.9883 9.0502 20.5768 8.78208 20.4367C8.51395 20.2967 8.31502 20.1872 8.08149 20.0603C7.8646 19.9181 7.63598 19.795 7.3982 19.6926C7.11277 19.5919 6.99169 20.0515 7.27279 20.1303" fill="#6B28B6"/>
<path d="M8.44913 19.4605C8.62256 19.54 8.78184 19.648 8.92053 19.78C8.96598 19.8222 9.02539 19.8456 9.08703 19.8456C9.14867 19.8456 9.20808 19.8222 9.25353 19.78C9.29711 19.735 9.32152 19.6745 9.32152 19.6115C9.32152 19.5485 9.29711 19.488 9.25353 19.443C9.05225 19.2606 8.82291 19.1128 8.57456 19.0052C8.54393 18.9861 8.50936 18.9745 8.47355 18.9712C8.43774 18.9679 8.40164 18.973 8.3681 18.9861C8.33456 18.9992 8.30448 19.02 8.28018 19.0468C8.25587 19.0737 8.23801 19.1058 8.22799 19.1408C8.21798 19.1757 8.21607 19.2125 8.22242 19.2484C8.22878 19.2842 8.24323 19.3181 8.26463 19.3473C8.28604 19.3766 8.31382 19.4004 8.34582 19.417C8.37783 19.4336 8.41318 19.4425 8.44913 19.443" fill="#6B28B6"/>
<path d="M8.70018 11.0293C8.89766 11.1251 9.08587 11.2395 9.26237 11.3707C9.48293 11.5809 9.81593 11.2482 9.59537 11.0337C9.38854 10.8751 9.16695 10.7373 8.93372 10.6222C8.67857 10.4558 8.44503 10.8629 8.70018 11.0293Z" fill="#6B28B6"/>
<path d="M8.75179 9.97453C9.23405 10.161 9.66548 10.4611 10.0103 10.85C10.2092 11.0864 10.5378 10.7493 10.3432 10.5173C9.94335 10.0694 9.43951 9.72937 8.87722 9.52801C8.59179 9.42733 8.47069 9.88697 8.75179 9.96577" fill="#6B28B6"/>
<path d="M9.40077 9.32246C9.72114 9.43669 10.0154 9.61538 10.2657 9.84777C10.4949 10.0448 10.8279 9.71208 10.5987 9.51072C10.2943 9.22528 9.93508 9.00623 9.54349 8.86721C9.25374 8.7709 9.11104 9.23054 9.41809 9.30496" fill="#6B28B6"/>
<path d="M9.92381 8.19743C9.98003 8.23245 10.0319 8.27185 10.0925 8.30249C10.3606 8.44695 10.5941 8.03984 10.3303 7.891C10.2698 7.86036 10.2179 7.82094 10.1617 7.7903C9.89353 7.64584 9.65568 8.05298 9.92381 8.19743Z" fill="#6B28B6"/>
<path d="M16.0434 12.5311L16.3635 12.6887C16.4737 12.7266 16.5795 12.7765 16.6791 12.8375C16.904 13.0345 17.237 12.7018 17.0078 12.5004C16.911 12.4183 16.7994 12.3559 16.6791 12.3166C16.5424 12.2598 16.4095 12.194 16.2813 12.1196C16.0132 11.9839 15.7753 12.391 16.0434 12.5311Z" fill="#6B28B6"/>
<path d="M16.3157 11.7038L17.4401 12.2203C17.7126 12.3473 17.9504 11.9358 17.678 11.8089L16.5536 11.2967C16.2811 11.1697 16.0389 11.5768 16.3157 11.7038Z" fill="#6B28B6"/>
<path d="M16.6574 10.7756C17.1151 10.9703 17.5575 11.2001 17.9807 11.4628C18.2359 11.6292 18.4737 11.2221 18.2186 11.0557C17.7949 10.7939 17.3525 10.5641 16.8953 10.3685C16.6185 10.2415 16.3806 10.6486 16.6574 10.7756Z" fill="#6B28B6"/>
<path d="M17.9635 10.4295C18.0632 10.4192 18.164 10.4327 18.2576 10.4689C18.3115 10.5003 18.3755 10.5087 18.4355 10.4922C18.4955 10.4758 18.5466 10.436 18.5776 10.3814C18.6086 10.3268 18.6168 10.262 18.6006 10.2013C18.5844 10.1405 18.545 10.0888 18.4911 10.0575C18.3275 9.976 18.1451 9.94117 17.9635 9.95675C17.9016 9.95675 17.8422 9.98167 17.7984 10.026C17.7546 10.0703 17.73 10.1305 17.73 10.1932C17.73 10.2558 17.7546 10.316 17.7984 10.3603C17.8422 10.4046 17.9016 10.4295 17.9635 10.4295Z" fill="#6B28B6"/>
<path d="M19.3821 6.68263C19.6156 6.88837 19.8578 7.08535 20.1086 7.2692C20.1348 7.28562 20.1641 7.29651 20.1946 7.30121C20.2251 7.30591 20.2562 7.30433 20.2861 7.29656C20.316 7.2888 20.344 7.27503 20.3685 7.25603C20.393 7.23704 20.4134 7.21322 20.4286 7.18603C20.459 7.13178 20.4675 7.06771 20.4522 7.00728C20.4368 6.94686 20.3989 6.8948 20.3464 6.8621C20.1259 6.70013 19.914 6.52504 19.7107 6.34994C19.5075 6.17483 19.1529 6.48564 19.3821 6.68263Z" fill="#6B28B6"/>
<path d="M20.212 6.27126C20.5255 6.53643 20.815 6.82943 21.077 7.14676C21.2802 7.37877 21.6089 7.0417 21.41 6.81406C21.1479 6.49686 20.8584 6.20388 20.545 5.93856C20.4996 5.89642 20.4402 5.87305 20.3785 5.87305C20.3169 5.87305 20.2575 5.89642 20.212 5.93856C20.1685 5.98357 20.144 6.04408 20.144 6.1071C20.144 6.17012 20.1685 6.23063 20.212 6.27564" fill="#6B28B6"/>
<path d="M21.5096 6.4331L21.5831 6.47686C21.6012 6.53685 21.6414 6.58752 21.6953 6.61847C21.7492 6.64941 21.8127 6.65827 21.8729 6.64321C21.9025 6.63465 21.9301 6.62028 21.9541 6.60089C21.9782 6.5815 21.9982 6.55747 22.0131 6.53022C22.028 6.50297 22.0374 6.47301 22.0408 6.44207C22.0442 6.41113 22.0415 6.37982 22.0329 6.34992C21.9991 6.26124 21.9457 6.18158 21.8767 6.11707C21.8077 6.05257 21.725 6.00494 21.635 5.97784C21.6052 5.96923 21.574 5.96669 21.5432 5.97042C21.5124 5.97414 21.4827 5.98403 21.4557 5.99951C21.4287 6.015 21.4051 6.03578 21.3861 6.06062C21.3671 6.08545 21.3533 6.11387 21.3453 6.14419C21.3294 6.20456 21.3378 6.26883 21.3685 6.32296C21.3993 6.3771 21.4501 6.41669 21.5096 6.4331Z" fill="#6B28B6"/>
<path d="M19.3432 15.2803C19.3785 15.3147 19.4117 15.3512 19.4427 15.3897C19.4938 15.4517 19.5518 15.5075 19.6156 15.556C19.6695 15.588 19.7338 15.5969 19.7942 15.5809C19.8546 15.5649 19.9063 15.5252 19.9378 15.4707C19.9693 15.4161 19.9782 15.3511 19.9624 15.2899C19.9466 15.2288 19.9074 15.1765 19.8535 15.1446C19.8182 15.1101 19.785 15.0736 19.754 15.0351C19.704 14.972 19.6458 14.9161 19.581 14.8688C19.5544 14.8531 19.5249 14.843 19.4944 14.8389C19.4638 14.8349 19.4328 14.837 19.403 14.8451C19.3733 14.8532 19.3454 14.8672 19.321 14.8863C19.2967 14.9054 19.2762 14.9292 19.261 14.9563C19.2306 15.0106 19.2221 15.0746 19.2375 15.1351C19.2528 15.1955 19.2907 15.2476 19.3432 15.2803Z" fill="#6B28B6"/>
<path d="M19.944 14.7896C20.104 14.8378 20.2078 15.0216 20.3505 15.1398C20.3946 15.1845 20.4545 15.2096 20.517 15.2096C20.5794 15.2096 20.6393 15.1845 20.6835 15.1398C20.7276 15.0951 20.7524 15.0345 20.7524 14.9713C20.7524 14.9081 20.7276 14.8474 20.6835 14.8027C20.5956 14.724 20.5119 14.6407 20.4326 14.5532C20.3318 14.4494 20.2069 14.3726 20.0694 14.33C19.7796 14.238 19.6369 14.6977 19.944 14.7896Z" fill="#6B28B6"/>
<path d="M20.4199 14.2118C20.5367 14.3388 20.6361 14.4832 20.7529 14.6145C20.8697 14.7459 21.0124 14.9122 21.1335 15.0523C21.1552 15.0747 21.1811 15.0924 21.2097 15.1045C21.2383 15.1167 21.269 15.1229 21.3 15.1229C21.331 15.1229 21.3617 15.1167 21.3902 15.1045C21.4188 15.0924 21.4447 15.0747 21.4665 15.0523C21.509 15.0068 21.5328 14.9464 21.5328 14.8837C21.5328 14.8211 21.509 14.7607 21.4665 14.7152C21.354 14.5751 21.2329 14.4482 21.1248 14.3037C21.0167 14.1593 20.8826 13.9973 20.7529 13.866C20.541 13.6471 20.208 13.9798 20.4199 14.203" fill="#6B28B6"/>
<path d="M21.1462 13.9757C21.2568 14.0452 21.3454 14.1455 21.4013 14.2646C21.4323 14.3192 21.4834 14.3591 21.5434 14.3755C21.6034 14.3919 21.6674 14.3835 21.7213 14.3522C21.7752 14.3208 21.8146 14.2691 21.8308 14.2083C21.8471 14.1476 21.8388 14.0828 21.8078 14.0282C21.7084 13.8364 21.5588 13.6758 21.3753 13.5642C21.3489 13.5484 21.3197 13.538 21.2893 13.5336C21.259 13.5292 21.228 13.5309 21.1983 13.5387C21.1686 13.5464 21.1407 13.56 21.1161 13.5786C21.0916 13.5973 21.0709 13.6206 21.0553 13.6474C21.0235 13.702 21.0144 13.7672 21.0297 13.8286C21.0451 13.8901 21.0838 13.943 21.1375 13.9757" fill="#6B28B6"/>
<path d="M21.2676 24.2801C21.3887 24.4027 21.4925 24.534 21.6093 24.661C21.7048 24.7654 21.8122 24.858 21.9293 24.9367C22.1801 25.1075 22.418 24.696 22.1628 24.5296C21.9563 24.3555 21.7679 24.1604 21.6006 23.9474C21.5791 23.9253 21.5534 23.9077 21.5251 23.8956C21.4968 23.8835 21.4664 23.8772 21.4357 23.877C21.405 23.8768 21.3745 23.8827 21.346 23.8944C21.3176 23.9061 21.2917 23.9234 21.2698 23.9452C21.2479 23.9671 21.2305 23.9931 21.2186 24.0217C21.2067 24.0504 21.2004 24.0811 21.2002 24.1122C21.2 24.1433 21.2059 24.1741 21.2174 24.2029C21.229 24.2318 21.2461 24.258 21.2676 24.2801Z" fill="#6B28B6"/>
<path d="M21.8124 23.4224C22.0762 23.7332 22.2448 24.1053 22.5259 24.4205C22.7249 24.6525 23.0535 24.3154 22.8589 24.0834C22.5951 23.7726 22.4265 23.4005 22.1454 23.0853C21.9464 22.8533 21.6178 23.1947 21.8124 23.4224Z" fill="#6B28B6"/>
<path d="M22.4913 23.2167C22.759 23.4336 22.9987 23.6836 23.2049 23.9609C23.2379 24.0132 23.2893 24.0508 23.3487 24.0663C23.4081 24.0817 23.4711 24.0738 23.5249 24.044C23.5517 24.0286 23.5752 24.0079 23.5941 23.9833C23.6129 23.9586 23.6268 23.9304 23.6348 23.9003C23.6428 23.8702 23.6449 23.8388 23.6409 23.8078C23.6369 23.7769 23.6269 23.7471 23.6114 23.7201C23.3845 23.408 23.1201 23.1257 22.8243 22.8796C22.7794 22.8365 22.7198 22.8125 22.6578 22.8125C22.5959 22.8125 22.5363 22.8365 22.4913 22.8796C22.4478 22.9246 22.4233 22.9851 22.4233 23.0482C22.4233 23.1112 22.4478 23.1717 22.4913 23.2167Z" fill="#6B28B6"/>
<path d="M23.4471 22.9756L23.7498 23.2864C23.7939 23.3311 23.8538 23.3563 23.9163 23.3563C23.9787 23.3563 24.0386 23.3311 24.0828 23.2864C24.1269 23.2417 24.1517 23.1811 24.1517 23.1179C24.1517 23.0547 24.1269 22.9941 24.0828 22.9494L23.7757 22.6386C23.7315 22.5945 23.6719 22.5699 23.6099 22.5703C23.5478 22.5707 23.4885 22.5961 23.4449 22.6408C23.4013 22.6855 23.377 22.7458 23.3774 22.8086C23.3779 22.8714 23.4029 22.9315 23.4471 22.9756Z" fill="#6B28B6"/>
<path d="M24.5712 12.2554C24.7654 12.4456 24.9433 12.6521 25.1031 12.8726C25.315 13.0915 25.6437 12.7544 25.4361 12.5355C25.2454 12.2886 25.0358 12.0573 24.8091 11.8439C24.7824 11.8282 24.753 11.8181 24.7224 11.814C24.6919 11.81 24.6608 11.8121 24.6311 11.8202C24.6013 11.8283 24.5734 11.8424 24.5491 11.8615C24.5247 11.8805 24.5043 11.9043 24.489 11.9314C24.4597 11.9859 24.4518 12.0496 24.4671 12.1098C24.4823 12.1699 24.5195 12.2219 24.5712 12.2554Z" fill="#6B28B6"/>
<path d="M25.0037 11.8742C25.1421 12.0099 25.3064 12.115 25.4361 12.2507C25.6524 12.4652 25.981 12.1281 25.7648 11.918C25.6264 11.7823 25.4621 11.6728 25.3323 11.5371C25.1161 11.327 24.7831 11.6597 24.9993 11.8742" fill="#6B28B6"/>
<path d="M25.4364 11.1871L25.5142 11.2484C25.4796 11.2221 25.5445 11.2921 25.5358 11.2746C25.5674 11.3292 25.6191 11.3688 25.6795 11.3848C25.7399 11.4008 25.8041 11.3919 25.858 11.36C25.9119 11.3281 25.9511 11.2758 25.9669 11.2146C25.9827 11.1535 25.9739 11.0884 25.9423 11.0339C25.9157 10.9944 25.8853 10.9578 25.8515 10.9244C25.8421 10.912 25.8304 10.9016 25.8169 10.8938L25.7694 10.8544C25.7475 10.8325 25.7216 10.8153 25.6931 10.8036C25.6647 10.7918 25.6342 10.7859 25.6035 10.7861C25.5728 10.7863 25.5424 10.7926 25.5141 10.8047C25.4858 10.8168 25.4601 10.8344 25.4385 10.8566C25.417 10.8787 25.3999 10.9049 25.3883 10.9337C25.3768 10.9625 25.3709 10.9934 25.3711 11.0245C25.3713 11.0556 25.3776 11.0863 25.3895 11.115C25.4014 11.1436 25.4188 11.1696 25.4407 11.1915" fill="#6B28B6"/>
<path d="M25.5878 18.9089C25.843 19.1584 26.15 19.3466 26.4052 19.5962C26.6603 19.8457 26.9544 19.4736 26.7382 19.2591C26.5219 19.0446 26.176 18.8213 25.9208 18.5718C25.6657 18.3223 25.3716 18.6944 25.5878 18.9089Z" fill="#6B28B6"/>
<path d="M25.9424 18.3397C26.1586 18.4317 26.2927 18.6374 26.5003 18.7512C26.7079 18.865 27.0063 18.4842 26.7381 18.3397C26.47 18.1953 26.4008 18.0246 26.1803 17.9282C26.1258 17.8983 26.0621 17.8902 26.002 17.9056C25.9419 17.921 25.8897 17.9588 25.8559 18.0114C25.8256 18.0669 25.8177 18.132 25.8339 18.1932C25.85 18.2544 25.8889 18.3069 25.9424 18.3397Z" fill="#6B28B6"/>
<path d="M26.4052 17.7841C26.5373 17.9298 26.682 18.0631 26.8377 18.1825C26.8641 18.1983 26.8933 18.2087 26.9237 18.2131C26.9541 18.2175 26.985 18.2158 27.0147 18.208C27.0445 18.2003 27.0724 18.1867 27.0969 18.1681C27.1215 18.1494 27.1421 18.1261 27.1577 18.0993C27.1881 18.0451 27.1966 17.981 27.1813 17.9205C27.166 17.8601 27.128 17.8081 27.0755 17.7754C26.946 17.6792 26.8258 17.5707 26.7166 17.4514C26.5004 17.2325 26.1674 17.5696 26.3836 17.7841" fill="#6B28B6"/>
<path d="M27.0148 17.066C27.0623 17.1054 27.1229 17.1273 27.1705 17.1667C27.2147 17.2096 27.2736 17.2334 27.3348 17.2334C27.396 17.2334 27.4549 17.2096 27.4991 17.1667C27.5211 17.1451 27.5385 17.1193 27.5505 17.0907C27.5624 17.0621 27.5685 17.0314 27.5685 17.0004C27.5685 16.9694 27.5624 16.9387 27.5505 16.9101C27.5385 16.8815 27.5211 16.8557 27.4991 16.8341C27.4559 16.7903 27.391 16.7684 27.3477 16.729C27.3036 16.6843 27.2437 16.6592 27.1812 16.6592C27.1188 16.6592 27.0589 16.6843 27.0148 16.729C26.9706 16.7737 26.9458 16.8343 26.9458 16.8975C26.9458 16.9607 26.9706 17.0213 27.0148 17.066Z" fill="#6B28B6"/>
<path d="M4.78625 15.381C4.87421 15.3785 4.96014 15.408 5.02843 15.4642C5.24899 15.6743 5.58199 15.3372 5.36143 15.1315C5.20327 14.9881 4.99855 14.9086 4.78625 14.9082C4.72432 14.9082 4.66492 14.9331 4.62112 14.9775C4.57733 15.0218 4.55273 15.0819 4.55273 15.1446C4.55273 15.2073 4.57733 15.2674 4.62112 15.3118C4.66492 15.3561 4.72432 15.381 4.78625 15.381Z" fill="#6B28B6"/>
<path d="M4.93762 14.3478C4.916 14.3478 4.89437 14.3478 4.93762 14.3478C4.98087 14.3478 4.99818 14.3959 4.97655 14.374C5.02102 14.4181 5.0808 14.4428 5.14306 14.4428C5.20531 14.4428 5.2651 14.4181 5.30956 14.374C5.35287 14.3298 5.37716 14.27 5.37716 14.2077C5.37716 14.1454 5.35287 14.0856 5.30956 14.0413C5.20928 13.9412 5.07785 13.8794 4.93762 13.8662C4.87569 13.8662 4.81629 13.8911 4.77249 13.9355C4.7287 13.9798 4.7041 14.0399 4.7041 14.1026C4.70521 14.165 4.73018 14.2244 4.77373 14.2685C4.81729 14.3126 4.87603 14.3379 4.93762 14.339" fill="#6B28B6"/>
<path d="M4.93776 13.8355C5.05734 13.8464 5.1743 13.8775 5.28375 13.9275C5.31357 13.9361 5.34477 13.9386 5.37556 13.9349C5.40635 13.9312 5.43609 13.9213 5.46306 13.9058C5.49003 13.8903 5.5137 13.8695 5.53266 13.8447C5.55162 13.8199 5.5655 13.7914 5.57349 13.7611C5.58822 13.7008 5.57934 13.6371 5.54871 13.5832C5.51808 13.5294 5.46809 13.4896 5.40916 13.4722C5.25931 13.4082 5.10002 13.3698 4.93776 13.3584C4.88075 13.3662 4.82849 13.3947 4.79064 13.4386C4.75279 13.4824 4.73193 13.5387 4.73193 13.597C4.73193 13.6552 4.75279 13.7115 4.79064 13.7554C4.82849 13.7992 4.88075 13.8277 4.93776 13.8355Z" fill="#6B28B6"/>
</svg>
