<svg width="23" height="23" viewBox="0 0 23 23" fill="none" xmlns="http://www.w3.org/2000/svg">
<path d="M9.9165 0.166504C15.2985 0.166504 19.6665 4.5345 19.6665 9.9165C19.6665 15.2985 15.2985 19.6665 9.9165 19.6665C4.5345 19.6665 0.166504 15.2985 0.166504 9.9165C0.166504 4.5345 4.5345 0.166504 9.9165 0.166504ZM9.9165 17.4998C14.1058 17.4998 17.4998 14.1058 17.4998 9.9165C17.4998 5.72617 14.1058 2.33317 9.9165 2.33317C5.72617 2.33317 2.33317 5.72617 2.33317 9.9165C2.33317 14.1058 5.72617 17.4998 9.9165 17.4998ZM19.1086 17.5768L22.1733 20.6404L20.6404 22.1733L17.5768 19.1086L19.1086 17.5768Z" fill="#56637D"/>
</svg>
