<svg width="62" height="62" viewBox="0 0 62 62" fill="none" xmlns="http://www.w3.org/2000/svg">
<circle cx="31" cy="31" r="31" fill="#8B29C4"/>
<path d="M24.718 26.98V28.35H22.858V34H21.148V28.35H19.288V26.98H24.718ZM31.1463 34L30.4963 33.37C29.8496 33.8633 29.0763 34.11 28.1763 34.11C27.6363 34.11 27.1663 34.0233 26.7663 33.85C26.3663 33.67 26.0563 33.42 25.8363 33.1C25.6229 32.7733 25.5163 32.3933 25.5163 31.96C25.5163 31.52 25.6329 31.1233 25.8663 30.77C26.1063 30.41 26.4629 30.1167 26.9363 29.89C26.7629 29.6767 26.6396 29.4733 26.5663 29.28C26.4929 29.08 26.4563 28.8633 26.4563 28.63C26.4563 28.2967 26.5429 27.9933 26.7163 27.72C26.8896 27.4467 27.1396 27.2333 27.4663 27.08C27.7996 26.92 28.1929 26.84 28.6463 26.84C29.1063 26.84 29.4963 26.9233 29.8163 27.09C30.1363 27.2567 30.3763 27.48 30.5363 27.76C30.6963 28.04 30.7696 28.3467 30.7563 28.68H29.1463C29.1529 28.5 29.1063 28.3633 29.0063 28.27C28.9129 28.17 28.7863 28.12 28.6263 28.12C28.4663 28.12 28.3329 28.1667 28.2263 28.26C28.1196 28.3533 28.0663 28.4733 28.0663 28.62C28.0663 28.76 28.1096 28.9067 28.1963 29.06C28.2896 29.2133 28.4329 29.39 28.6263 29.59L30.3363 31.26C30.3496 31.2267 30.3663 31.1867 30.3863 31.14C30.4129 31.0933 30.4396 31.04 30.4663 30.98L30.8363 30.35H32.5463L32.0663 31.22C31.8863 31.6133 31.6796 31.9867 31.4463 32.34L33.1363 34H31.1463ZM28.2563 32.73C28.7029 32.73 29.0996 32.6033 29.4463 32.35L27.8863 30.84C27.4063 31.0867 27.1663 31.42 27.1663 31.84C27.1663 32.0933 27.2629 32.3067 27.4563 32.48C27.6563 32.6467 27.9229 32.73 28.2563 32.73ZM33.6648 30.48C33.6648 29.7867 33.8148 29.17 34.1148 28.63C34.4148 28.0833 34.8314 27.66 35.3648 27.36C35.9048 27.0533 36.5148 26.9 37.1948 26.9C38.0281 26.9 38.7414 27.12 39.3348 27.56C39.9281 28 40.3248 28.6 40.5248 29.36H38.6448C38.5048 29.0667 38.3048 28.8433 38.0448 28.69C37.7914 28.5367 37.5014 28.46 37.1748 28.46C36.6481 28.46 36.2214 28.6433 35.8948 29.01C35.5681 29.3767 35.4048 29.8667 35.4048 30.48C35.4048 31.0933 35.5681 31.5833 35.8948 31.95C36.2214 32.3167 36.6481 32.5 37.1748 32.5C37.5014 32.5 37.7914 32.4233 38.0448 32.27C38.3048 32.1167 38.5048 31.8933 38.6448 31.6H40.5248C40.3248 32.36 39.9281 32.96 39.3348 33.4C38.7414 33.8333 38.0281 34.05 37.1948 34.05C36.5148 34.05 35.9048 33.9 35.3648 33.6C34.8314 33.2933 34.4148 32.87 34.1148 32.33C33.8148 31.79 33.6648 31.1733 33.6648 30.48Z" fill="white"/>
</svg>
