<svg width="22" height="20" viewBox="0 0 22 20" fill="none" xmlns="http://www.w3.org/2000/svg">
<path d="M0.166504 7.29167V1.33333C0.166504 1.04602 0.28064 0.770465 0.483805 0.567301C0.686969 0.364137 0.962519 0.25 1.24984 0.25H20.7498C21.0372 0.25 21.3127 0.364137 21.5159 0.567301C21.719 0.770465 21.8332 1.04602 21.8332 1.33333V7.29167C21.1149 7.29167 20.426 7.57701 19.9181 8.08492C19.4102 8.59283 19.1248 9.28171 19.1248 10C19.1248 10.7183 19.4102 11.4072 19.9181 11.9151C20.426 12.423 21.1149 12.7083 21.8332 12.7083V18.6667C21.8332 18.954 21.719 19.2295 21.5159 19.4327C21.3127 19.6359 21.0372 19.75 20.7498 19.75H1.24984C0.962519 19.75 0.686969 19.6359 0.483805 19.4327C0.28064 19.2295 0.166504 18.954 0.166504 18.6667V12.7083C0.884799 12.7083 1.57367 12.423 2.08158 11.9151C2.5895 11.4072 2.87484 10.7183 2.87484 10C2.87484 9.28171 2.5895 8.59283 2.08158 8.08492C1.57367 7.57701 0.884799 7.29167 0.166504 7.29167ZM13.1665 2.41667H2.33317V5.632C3.14698 6.03532 3.83193 6.65797 4.3108 7.42975C4.78967 8.20152 5.04341 9.09173 5.04341 10C5.04341 10.9083 4.78967 11.7985 4.3108 12.5703C3.83193 13.342 3.14698 13.9647 2.33317 14.368V17.5833H13.1665V2.41667ZM15.3332 2.41667V17.5833H19.6665V14.368C18.8527 13.9647 18.1677 13.342 17.6889 12.5703C17.21 11.7985 16.9563 10.9083 16.9563 10C16.9563 9.09173 17.21 8.20152 17.6889 7.42975C18.1677 6.65797 18.8527 6.03532 19.6665 5.632V2.41667H15.3332Z" fill="#56637D"/>
</svg>
