<svg width="24" height="24" viewBox="0 0 24 24" fill="none" xmlns="http://www.w3.org/2000/svg">
<g clip-path="url(#clip0_615_2037)">
<path fill-rule="evenodd" clip-rule="evenodd" d="M12.5497 8.85493C12.5495 13.1858 12.5335 15.8498 12.5062 16.0899C12.4111 16.9292 12.0744 17.5691 11.4882 18.0248C10.2998 18.9485 8.45173 18.9026 7.37073 17.9226C6.73071 17.3424 6.45715 16.7254 6.41772 15.7732C6.39229 15.1596 6.44986 14.8456 6.67557 14.3664C7.15837 13.3417 8.16136 12.6816 9.33185 12.6184C9.72316 12.5972 10.2132 12.6588 10.4899 12.7639C10.5333 12.7803 10.5442 12.4409 10.5442 11.0757V9.36688L10.3415 9.33918C8.77147 9.12469 7.18927 9.49439 5.81487 10.397C5.29596 10.7377 4.40611 11.6233 4.06124 12.1421C3.59905 12.8375 3.25329 13.6539 3.09564 14.4221C2.98878 14.9431 2.96799 15.8836 3.05091 16.4488C3.27877 18.0016 3.86314 19.218 4.84607 20.1855C5.5816 20.9094 6.38618 21.396 7.3479 21.6984C8.19542 21.9649 8.45156 22.0012 9.4773 22C10.2702 21.999 10.4557 21.9858 10.843 21.9026C13.6408 21.3016 15.463 19.3372 15.8827 16.4699C15.9094 16.2877 15.9246 14.859 15.9223 12.7438C15.9204 10.857 15.9298 9.31317 15.9434 9.31317C15.957 9.31317 16.1192 9.39935 16.3038 9.50469C17.4888 10.181 19.1694 10.6221 20.5609 10.6221H21V8.84872V7.07537L20.6479 7.07512C19.9764 7.07465 19.1096 6.90226 18.5105 6.65002C18.092 6.47382 17.5517 6.10814 17.2879 5.82254C16.4994 4.9691 16.0132 3.78673 15.9358 2.53467C15.9207 2.29011 15.8969 2.08352 15.8829 2.07558C15.8689 2.0676 15.1133 2.04737 14.2037 2.03057L12.55 2L12.5497 8.85493Z" fill="#8B29C4"/>
</g>
<defs>
<clipPath id="clip0_615_2037">
<rect width="24" height="24" fill="white"/>
</clipPath>
</defs>
</svg>
