<svg width="62" height="62" viewBox="0 0 62 62" fill="none" xmlns="http://www.w3.org/2000/svg">
<circle cx="31" cy="31" r="31" fill="white"/>
<path d="M15.2496 21.98L12.7596 29H10.6196L8.12965 21.98H9.94965L11.6896 27.28L13.4396 21.98H15.2496ZM17.8743 23.35V24.77H20.1643V26.09H17.8743V27.63H20.4643V29H16.1643V21.98H20.4643V23.35H17.8743ZM25.3545 29L23.8945 26.35H23.4845V29H21.7745V21.98H24.6445C25.1978 21.98 25.6678 22.0767 26.0545 22.27C26.4478 22.4633 26.7412 22.73 26.9345 23.07C27.1278 23.4033 27.2245 23.7767 27.2245 24.19C27.2245 24.6567 27.0912 25.0733 26.8245 25.44C26.5645 25.8067 26.1778 26.0667 25.6645 26.22L27.2845 29H25.3545ZM23.4845 25.14H24.5445C24.8578 25.14 25.0912 25.0633 25.2445 24.91C25.4045 24.7567 25.4845 24.54 25.4845 24.26C25.4845 23.9933 25.4045 23.7833 25.2445 23.63C25.0912 23.4767 24.8578 23.4 24.5445 23.4H23.4845V25.14ZM31.0379 29.07C30.5246 29.07 30.0646 28.9867 29.6579 28.82C29.2513 28.6533 28.9246 28.4067 28.6779 28.08C28.4379 27.7533 28.3113 27.36 28.2979 26.9H30.1179C30.1446 27.16 30.2346 27.36 30.3879 27.5C30.5413 27.6333 30.7413 27.7 30.9879 27.7C31.2413 27.7 31.4413 27.6433 31.5879 27.53C31.7346 27.41 31.8079 27.2467 31.8079 27.04C31.8079 26.8667 31.7479 26.7233 31.6279 26.61C31.5146 26.4967 31.3713 26.4033 31.1979 26.33C31.0313 26.2567 30.7913 26.1733 30.4779 26.08C30.0246 25.94 29.6546 25.8 29.3679 25.66C29.0813 25.52 28.8346 25.3133 28.6279 25.04C28.4213 24.7667 28.3179 24.41 28.3179 23.97C28.3179 23.3167 28.5546 22.8067 29.0279 22.44C29.5013 22.0667 30.1179 21.88 30.8779 21.88C31.6513 21.88 32.2746 22.0667 32.7479 22.44C33.2213 22.8067 33.4746 23.32 33.5079 23.98H31.6579C31.6446 23.7533 31.5613 23.5767 31.4079 23.45C31.2546 23.3167 31.0579 23.25 30.8179 23.25C30.6113 23.25 30.4446 23.3067 30.3179 23.42C30.1913 23.5267 30.1279 23.6833 30.1279 23.89C30.1279 24.1167 30.2346 24.2933 30.4479 24.42C30.6613 24.5467 30.9946 24.6833 31.4479 24.83C31.9013 24.9833 32.2679 25.13 32.5479 25.27C32.8346 25.41 33.0813 25.6133 33.2879 25.88C33.4946 26.1467 33.5979 26.49 33.5979 26.91C33.5979 27.31 33.4946 27.6733 33.2879 28C33.0879 28.3267 32.7946 28.5867 32.4079 28.78C32.0213 28.9733 31.5646 29.07 31.0379 29.07ZM36.5603 21.98V29H34.8503V21.98H36.5603ZM41.3195 29.07C40.6595 29.07 40.0528 28.9167 39.4995 28.61C38.9528 28.3033 38.5162 27.8767 38.1895 27.33C37.8695 26.7767 37.7095 26.1567 37.7095 25.47C37.7095 24.7833 37.8695 24.1667 38.1895 23.62C38.5162 23.0733 38.9528 22.6467 39.4995 22.34C40.0528 22.0333 40.6595 21.88 41.3195 21.88C41.9795 21.88 42.5828 22.0333 43.1295 22.34C43.6828 22.6467 44.1162 23.0733 44.4295 23.62C44.7495 24.1667 44.9095 24.7833 44.9095 25.47C44.9095 26.1567 44.7495 26.7767 44.4295 27.33C44.1095 27.8767 43.6762 28.3033 43.1295 28.61C42.5828 28.9167 41.9795 29.07 41.3195 29.07ZM41.3195 27.51C41.8795 27.51 42.3262 27.3233 42.6595 26.95C42.9995 26.5767 43.1695 26.0833 43.1695 25.47C43.1695 24.85 42.9995 24.3567 42.6595 23.99C42.3262 23.6167 41.8795 23.43 41.3195 23.43C40.7528 23.43 40.2995 23.6133 39.9595 23.98C39.6262 24.3467 39.4595 24.8433 39.4595 25.47C39.4595 26.09 39.6262 26.5867 39.9595 26.96C40.2995 27.3267 40.7528 27.51 41.3195 27.51ZM52.3408 29H50.6308L47.7708 24.67V29H46.0608V21.98H47.7708L50.6308 26.33V21.98H52.3408V29ZM19.1444 35.29V33.7H21.9144V41H20.1344V35.29H19.1444ZM24.2542 41.08C23.9542 41.08 23.7075 40.9933 23.5142 40.82C23.3275 40.64 23.2342 40.42 23.2342 40.16C23.2342 39.8933 23.3275 39.67 23.5142 39.49C23.7075 39.31 23.9542 39.22 24.2542 39.22C24.5475 39.22 24.7875 39.31 24.9742 39.49C25.1675 39.67 25.2642 39.8933 25.2642 40.16C25.2642 40.42 25.1675 40.64 24.9742 40.82C24.7875 40.9933 24.5475 41.08 24.2542 41.08ZM26.3064 37.25C26.3064 36.1033 26.5264 35.2 26.9664 34.54C27.4131 33.88 28.1298 33.55 29.1164 33.55C30.1031 33.55 30.8164 33.88 31.2564 34.54C31.7031 35.2 31.9264 36.1033 31.9264 37.25C31.9264 38.41 31.7031 39.32 31.2564 39.98C30.8164 40.64 30.1031 40.97 29.1164 40.97C28.1298 40.97 27.4131 40.64 26.9664 39.98C26.5264 39.32 26.3064 38.41 26.3064 37.25ZM30.2464 37.25C30.2464 36.5767 30.1731 36.06 30.0264 35.7C29.8798 35.3333 29.5764 35.15 29.1164 35.15C28.6564 35.15 28.3531 35.3333 28.2064 35.7C28.0598 36.06 27.9864 36.5767 27.9864 37.25C27.9864 37.7033 28.0131 38.08 28.0664 38.38C28.1198 38.6733 28.2264 38.9133 28.3864 39.1C28.5531 39.28 28.7964 39.37 29.1164 39.37C29.4364 39.37 29.6764 39.28 29.8364 39.1C30.0031 38.9133 30.1131 38.6733 30.1664 38.38C30.2198 38.08 30.2464 37.7033 30.2464 37.25ZM33.9999 41.08C33.6999 41.08 33.4532 40.9933 33.2599 40.82C33.0732 40.64 32.9799 40.42 32.9799 40.16C32.9799 39.8933 33.0732 39.67 33.2599 39.49C33.4532 39.31 33.6999 39.22 33.9999 39.22C34.2932 39.22 34.5332 39.31 34.7199 39.49C34.9132 39.67 35.0099 39.8933 35.0099 40.16C35.0099 40.42 34.9132 40.64 34.7199 40.82C34.5332 40.9933 34.2932 41.08 33.9999 41.08ZM36.0521 37.25C36.0521 36.1033 36.2721 35.2 36.7121 34.54C37.1588 33.88 37.8755 33.55 38.8621 33.55C39.8488 33.55 40.5621 33.88 41.0021 34.54C41.4488 35.2 41.6721 36.1033 41.6721 37.25C41.6721 38.41 41.4488 39.32 41.0021 39.98C40.5621 40.64 39.8488 40.97 38.8621 40.97C37.8755 40.97 37.1588 40.64 36.7121 39.98C36.2721 39.32 36.0521 38.41 36.0521 37.25ZM39.9921 37.25C39.9921 36.5767 39.9188 36.06 39.7721 35.7C39.6255 35.3333 39.3221 35.15 38.8621 35.15C38.4021 35.15 38.0988 35.3333 37.9521 35.7C37.8055 36.06 37.7321 36.5767 37.7321 37.25C37.7321 37.7033 37.7588 38.08 37.8121 38.38C37.8655 38.6733 37.9721 38.9133 38.1321 39.1C38.2988 39.28 38.5421 39.37 38.8621 39.37C39.1821 39.37 39.4221 39.28 39.5821 39.1C39.7488 38.9133 39.8588 38.6733 39.9121 38.38C39.9655 38.08 39.9921 37.7033 39.9921 37.25Z" fill="#8B29C4"/>
</svg>
